<svg xmlns="http://www.w3.org/2000/svg" id="Layer_1" data-name="Layer 1" width="0.34in" height="0.31in" viewBox="0 0 24.19 22.26"><defs><style>.cls-1{fill:#b7ce63;fill-rule:evenodd;}</style></defs><path class="cls-1" d="M316.11,292a11.13,11.13,0,1,0,11.13,11.13A11.13,11.13,0,0,0,316.11,292Zm0,21.29a10.17,10.17,0,1,1,10.16-10.16A10.16,10.16,0,0,1,316.11,313.25Zm8.15-20.81a4.17,4.17,0,0,0-1.38.24l.75.77a3.21,3.21,0,0,1,.63-.06,2.93,2.93,0,0,1,3,2.84,2.69,2.69,0,0,1-.14.8l.72.74a3.62,3.62,0,0,0,.35-1.54A3.88,3.88,0,0,0,324.26,292.44Zm-19.32,3.79a2.93,2.93,0,0,1,3-2.84,3.28,3.28,0,0,1,.63.06l.75-.77a4.21,4.21,0,0,0-1.38-.24,3.88,3.88,0,0,0-3.95,3.79,3.62,3.62,0,0,0,.35,1.54l.72-.74A2.69,2.69,0,0,1,304.94,296.23Zm11.17,6.86h-4.36v1h5.33v-8.71h-1Z" transform="translate(-304.01 -291.96)"></path></svg>