<svg xmlns="http://www.w3.org/2000/svg" xmlns:cc="http://creativecommons.org/ns#" xmlns:dc="http://purl.org/dc/elements/1.1/" xmlns:rdf="http://www.w3.org/1999/02/22-rdf-syntax-ns#" width="25.3" height="24.74" data-name="Layer 1" viewBox="0 0 25.3 24.74"><metadata></metadata><defs><style>.cls-1{fill:none;}.cls-2{clip-path:url(#ci2a);}.cls-3{opacity:0.75;}.cls-4{clip-path:url(#ci2b);}.cls-5{fill:#b7ce63;}</style><clipPath id="ci2a" transform="translate(-.39 -.1)"><rect class="cls-1" x=".39" y=".1" width="25.51" height="24.74"></rect></clipPath><clipPath id="ci2b" transform="translate(-.39 -.1)"><rect class="cls-1" x="-8.61" y="-6.9" width="43.51" height="32.74"></rect></clipPath></defs><title>checking_icon2</title><g class="cls-2" clip-path="url(#ci2a)"><g class="cls-2" clip-path="url(#ci2a)"><g class="cls-3"><g class="cls-4" clip-path="url(#ci2b)"><g class="cls-2" clip-path="url(#ci2a)"><path class="cls-5" transform="translate(-.39 -.1)" d="M24.84,3.84,21.14.1l-17,17.2-.06.06L.39,24.84,7.78,21.1,24,4.72a5.34,5.34,0,0,1,.65,2.44,1.82,1.82,0,0,1-1.11,1.22l-1.44.7a7.54,7.54,0,0,0-3.94,3.22,27.27,27.27,0,0,1-1.78,2.53l.74.75A22.51,22.51,0,0,0,19,12.88,6.57,6.57,0,0,1,22.52,10c.42-.2.9-.43,1.45-.71a2.75,2.75,0,0,0,1.68-2,6.56,6.56,0,0,0-.81-3.49M2.72,22.48l1.69-3.41,1.68,1.7Zm4.44-2.25-.08,0L4.9,18.07l0-.08L21.14,1.6l2.22,2.24ZM4.88,24.85H22.13V23.79H4.88Z"></path></g></g></g></g></g></svg>