<svg xmlns="http://www.w3.org/2000/svg" xmlns:cc="http://creativecommons.org/ns#" xmlns:dc="http://purl.org/dc/elements/1.1/" xmlns:rdf="http://www.w3.org/1999/02/22-rdf-syntax-ns#" width="24.87" height="23.94" data-name="Layer 1" viewBox="0 0 24.87 23.94"><metadata></metadata><defs><style>.cls-1{fill:none;}.cls-2{clip-path:url(#li2a);}.cls-3{opacity:0.75;}.cls-4{clip-path:url(#li2b);}.cls-5{fill:#b7ce63;}</style><clipPath id="li2a" transform="translate(-.55 -.52)"><rect class="cls-1" x=".51" y=".52" width="24.95" height="23.94"></rect></clipPath><clipPath id="li2b" transform="translate(-.55 -.52)"><rect class="cls-1" x="-8.49" y="-6.48" width="42.95" height="31.94"></rect></clipPath></defs><title>lifeline_icon2</title><g class="cls-2" clip-path="url(#li2a)"><g class="cls-2" clip-path="url(#li2a)"><g class="cls-3"><g class="cls-4" clip-path="url(#li2b)"><g class="cls-2" clip-path="url(#li2a)"><path class="cls-5" transform="translate(-.55 -.52)" d="M5.58,24.45a.46.46,0,0,1-.27-.09.44.44,0,0,1-.16-.51l2.72-8.5L.73,10.06a.47.47,0,0,1-.16-.52A.46.46,0,0,1,1,9.23H9.82L12.55.83a.46.46,0,0,1,.87,0l2.72,8.4H25a.46.46,0,0,1,.27.83l-7.14,5.3,2.73,8.45a.47.47,0,0,1-.16.51.45.45,0,0,1-.54,0L13,19.16l-7.13,5.2a.46.46,0,0,1-.27.09M2.39,10.15l6.29,4.66a.46.46,0,0,1,.16.51L6.44,22.8l6.27-4.58a.48.48,0,0,1,.54,0l6.27,4.54-2.39-7.44a.43.43,0,0,1,.16-.5l6.29-4.67H15.81a.45.45,0,0,1-.43-.32L13,2.45,10.59,9.83a.46.46,0,0,1-.43.32Z"></path></g></g></g></g></g></svg>