<svg xmlns="http://www.w3.org/2000/svg" xmlns:xlink="http://www.w3.org/1999/xlink" id="Layer_1" data-name="Layer 1" width="0.4in" height="0.38in" viewBox="0 0 28.67 27.01"><defs><style>.cls-1,.cls-6,.cls-7,.cls-8{fill:none;}.cls-2{clip-path:url(#clip-path);}.cls-3,.cls-4{fill:#b7ce63;}.cls-3,.cls-4,.cls-8{stroke:#fff;}.cls-3,.cls-4,.cls-6,.cls-7,.cls-8{stroke-miterlimit:10;}.cls-3{stroke-width:0.29px;}.cls-4{stroke-width:0.15px;}.cls-5{fill:#fff;}.cls-6,.cls-7{stroke:#b7ce63;}.cls-6{stroke-width:0.94px;}.cls-7{stroke-width:1.04px;}.cls-8{stroke-width:0.52px;}</style><clipPath id="clip-path" transform="translate(-308.17 -289.36)"><rect class="cls-1" x="308.32" y="289.5" width="28.45" height="26.72"></rect></clipPath></defs><g class="cls-2"><path class="cls-3" d="M321.57,315H310.89a1.38,1.38,0,0,1-1.31-1.39v-1.81H323v1.81a1.39,1.39,0,0,1-1.39,1.39M311,290.76h10.61a1.38,1.38,0,0,1,1.39,1.38v.31H309.58v-.31a1.38,1.38,0,0,1,1.38-1.38m-1.38,2.95H323v16.8H309.58Zm14.64-1.57a2.65,2.65,0,0,0-2.65-2.64H311a2.64,2.64,0,0,0-2.64,2.64v21.43a2.65,2.65,0,0,0,2.64,2.65h10.61a2.65,2.65,0,0,0,2.65-2.65Z" transform="translate(-308.17 -289.36)"></path><path class="cls-4" d="M312.17,298.42h1.34a.63.63,0,0,0,0-1.26h-1.34a.63.63,0,0,0,0,1.26" transform="translate(-308.17 -289.36)"></path><path class="cls-4" d="M316.18,298.42h1.34a.63.63,0,0,0,0-1.26h-1.34a.63.63,0,0,0,0,1.26" transform="translate(-308.17 -289.36)"></path><path class="cls-4" d="M313.56,301.19h-1.33a.63.63,0,1,0,0,1.25h1.33a.63.63,0,1,0,0-1.25" transform="translate(-308.17 -289.36)"></path><path class="cls-4" d="M317.57,301.19h-1.33a.63.63,0,1,0,0,1.25h1.33a.63.63,0,1,0,0-1.25" transform="translate(-308.17 -289.36)"></path><path class="cls-4" d="M317.31,301.19H316a.63.63,0,1,0,0,1.25h1.33a.63.63,0,1,0,0-1.25" transform="translate(-308.17 -289.36)"></path><path class="cls-4" d="M315.92,298.42h1.34a.63.63,0,0,0,0-1.26h-1.34a.63.63,0,0,0,0,1.26" transform="translate(-308.17 -289.36)"></path></g><polygon class="cls-5" points="12.69 13.67 9.06 9.32 9.65 7.41 11.14 7.83 13.15 10.2 14.05 9.19 15.36 9.04 16.06 7.97 17.43 7.71 18.41 6.54 19.92 6.46 24.39 11.91 25.43 15.29 26.94 15.13 28.16 17.14 20.99 23.02 19.57 22.24 18.78 21.02 19.64 19.96 17.59 19.48 13.32 17.59 11.91 15.52 12.8 14.51 12.69 13.67"></polygon><g class="cls-2"><path class="cls-4" d="M321,305.14h0a.17.17,0,0,1-.06-.12h0a.43.43,0,0,1,.17-.4l0,0,0,0a1.94,1.94,0,0,1,.29-.21l.5.61h0a.19.19,0,0,1,0,.16.55.55,0,0,0,.84.67.86.86,0,0,0,.14-.18,1.25,1.25,0,0,0,.05-1.05h0a.92.92,0,0,0-.17-.29l-4.74-5.8-.06-.09-.05-.07,0-.05,0-.07,0-.08,0-.08v-.21l0-.06v-.06l0-.05,0-.06,0-.08,0,0,0,0,.05,0,.05,0,0,0,.05,0,.08,0,.07,0h.32l.07,0,.07,0,.05,0,.06,0,.07.06.06.05.06.08,2.4,2.93h0l.45.55a.53.53,0,0,0,.76.08.54.54,0,0,0,.08-.77l-.44-.53,0-.05,0-.06,0-.06,0-.06v-.3l0-.06,0-.06,0-.06,0-.07,0-.06,0,0,0-.05.05,0,.05,0,.07,0,.06,0,.06,0h.22l.08,0,.07,0,.07,0,.05,0,.05,0,0,0,.05.05.05,0,.42.52a.54.54,0,0,0,.87-.65l-.12-.19-.05-.08,0-.07,0-.07,0-.06V298l0-.06,0-.07,0-.06,0,0,0-.05,0,0,0,0,.05,0,.05,0,.06,0,0,0,.05,0h.38l.07,0,.06,0,.06,0,.08.05.07.05.08.06.06.06.05.06v0a.54.54,0,0,0,.75.18s.05,0,.06-.05a.53.53,0,0,0,.12-.7l-.05-.09,0-.06,0-.06,0-.06v-.34l0-.06,0-.07,0,0,.05-.06,0-.06,0-.05.06,0,.06,0,.06,0,.05,0,.06,0,.08,0h.29l.07,0,0,0,.05,0,.05,0,0,0,0,.06h0l4,4.15a5,5,0,0,1,1.3,3.28,1.91,1.91,0,0,0,.07.63l-5.39,4.41a1.63,1.63,0,0,0-.59-.19,10.94,10.94,0,0,1-6.18-3.59Zm8,6.55h0a.23.23,0,0,1-.33-.05l-.86-1.05a.2.2,0,0,1,0-.3l.31-.25h0l6.34-5.18a.22.22,0,0,1,.32,0l.87,1.05a.25.25,0,0,1,0,.34Zm5.17-7.91a6.21,6.21,0,0,0-1.59-3.92h0l-4-4.15-.07-.07,0,0-.08-.08-.06-.05-.1-.06h0l-.09-.06-.07,0-.1-.05h0l-.11,0-.05,0-.11,0h0l-.11,0h-.42l-.11,0h0l-.12,0-.06,0-.11,0,0,0-.11,0,0,0-.1.05,0,0-.1.07,0,0-.09.08,0,0-.08.08,0,0-.08.1,0,0-.06.09,0,.05-.07.1,0,.06-.05.11v0l0,.11a.19.19,0,0,0,0,.08v0h-.05l-.12,0h-.53l-.12,0h0l-.11,0-.07,0-.11,0,0,0-.1.05,0,0-.1.05-.06,0-.1.08,0,0-.08.08,0,0-.08.08,0,0-.07.09,0,.06-.06.1,0,.05-.05.11s0,0,0,0l0,.11v0l0,.11h0l-.11,0h0l-.11,0h-.57l-.1,0h-.05l-.11,0-.05,0-.11,0,0,0-.11.06,0,0-.09.06-.05,0-.09.08,0,0-.08.08,0,.05-.08.08,0,0-.06.1,0,0,0,.08-1.4-1.71,0,0-.09-.1,0,0-.09-.09,0,0-.1-.08,0,0-.1-.07-.05,0-.11-.06,0,0-.11-.05h0l-.12,0-.06,0-.12,0h0l-.12,0h-.38l-.12,0H318l-.11,0h0l-.11,0h-.05l-.1.05-.07,0-.1.06,0,0-.09.06,0,0-.09.08,0,0-.07.09-.05.06-.07.09,0,.05-.06.1v0l-.05.09s0,0,0,.05l0,.11a.24.24,0,0,0,0,.08l0,.11v0l0,.11V298l0,.12v0l0,.13a.06.06,0,0,0,0,0l0,.12a.08.08,0,0,1,0,0l0,.12h0l0,.12,0,.08.06.11,0,0,.07.11h0l.08.11h0v0l3.57,4.35a1.76,1.76,0,0,0-.3.24,1.52,1.52,0,0,0-.6,1.38h0a1.31,1.31,0,0,0,.32.71h0a12.11,12.11,0,0,0,6.67,3.91,1.32,1.32,0,0,0,.13,1.51l.86,1.06h0a1.35,1.35,0,0,0,1.87.2h0l6.62-5.42a1.32,1.32,0,0,0,.18-1.87l-.86-1.05a1.32,1.32,0,0,0-1.46-.41" transform="translate(-308.17 -289.36)"></path></g><line class="cls-6" x1="15.4" y1="4.52" x2="15.4" y2="9.25"></line><line class="cls-6" x1="15.4" y1="18.51" x2="15.4" y2="23.24"></line><line class="cls-7" x1="9.04" y1="8.47" x2="7.83" y2="8.47"></line><polygon class="cls-8" points="9.7 11.42 9.97 12.44 9.73 13.23 10.08 12.77 10.2 12.01 9.7 11.42"></polygon></svg>