<svg xmlns="http://www.w3.org/2000/svg" id="Layer_1" data-name="Layer 1" width="0.38in" height="0.33in" viewBox="0 0 27.31 23.77"><defs><style>.cls-1{fill:#b7ce63;}</style></defs><path class="cls-1" d="M325.89,300.82c0-.16,0-.33,0-.49v-.06a9.08,9.08,0,0,0-9.07-9.07h-.06a9,9,0,0,0-8.85,7.1,5.72,5.72,0,0,0-5.28,5.7v.19a5.73,5.73,0,0,0,5.72,5.72h3.89v-1h-3.89a4.71,4.71,0,0,1-4.71-4.71V304a4.73,4.73,0,0,1,4.69-4.71h.42l.08-.42a8,8,0,0,1,7.93-6.66h.06a8.07,8.07,0,0,1,8.06,8.06v.06a7.88,7.88,0,0,1-.06.93l-.06.56h.75a3.41,3.41,0,0,1,3.41,3.41v.26a3.41,3.41,0,0,1-3.41,3.41h-4.17v1h4.17a4.43,4.43,0,0,0,4.43-4.42v-.26A4.44,4.44,0,0,0,325.89,300.82Zm-8.64,2.64a.63.63,0,0,0-.2-.13.5.5,0,0,0-.6.07l-3,3a.51.51,0,0,0,.36.87.5.5,0,0,0,.35-.15l2.16-2.12v9.49a.51.51,0,0,0,.51.51.5.5,0,0,0,.5-.51V305l2.2,2.24a.51.51,0,0,0,.36.15.5.5,0,0,0,.36-.86Z" transform="translate(-302.64 -291.2)"></path></svg>