<svg xmlns="http://www.w3.org/2000/svg" xmlns:cc="http://creativecommons.org/ns#" xmlns:dc="http://purl.org/dc/elements/1.1/" xmlns:rdf="http://www.w3.org/1999/02/22-rdf-syntax-ns#" width="22.46" height="22.46" data-name="Layer 1" viewBox="0 0 22.46 22.46"><metadata></metadata><defs><style>.cls-1,.cls-8{fill:none;}.cls-2{clip-path:url(#mmi2d);}.cls-3{clip-path:url(#mmi2c);}.cls-4{opacity:0.75;}.cls-5{clip-path:url(#mmi2b);}.cls-6{clip-path:url(#mmi2a);}.cls-7{fill:#b7ce63;}.cls-8{stroke:#b7ce63;stroke-miterlimit:10;stroke-width:0.37px;}</style><clipPath id="mmi2d" transform="translate(-1.8 -1.27)"><rect class="cls-1" x="-.35" y="-.88" width="26.76" height="27.77"></rect></clipPath><clipPath id="mmi2c" transform="translate(-1.8 -1.27)"><rect class="cls-1" x="-.35" y="-.88" width="26.76" height="27.77"></rect></clipPath><clipPath id="mmi2b" transform="translate(-1.8 -1.27)"><rect class="cls-1" x="-9.35" y="-7.88" width="44.76" height="35.77"></rect></clipPath><clipPath id="mmi2a" transform="translate(-1.8 -1.27)"><rect class="cls-1" x="-.35" y="-.88" width="26.76" height="26.76"></rect></clipPath></defs><title>moneymarket_icon2</title><g class="cls-2" clip-path="url(#mmi2d)"><g class="cls-3" clip-path="url(#mmi2c)"><g class="cls-4"><g class="cls-5" clip-path="url(#mmi2b)"><g class="cls-6" clip-path="url(#mmi2a)"><path class="cls-7" transform="translate(-1.8 -1.27)" d="M13.73,11.59V7.52a2.41,2.41,0,0,1,1.18.4A4.47,4.47,0,0,1,16,9l.69-.39a3.63,3.63,0,0,0-1.2-1.28,3.71,3.71,0,0,0-1.73-.53V5.62h-.66V6.77a4.09,4.09,0,0,0-2.34.87A2.36,2.36,0,0,0,9.9,9.51a2.27,2.27,0,0,0,.74,1.76,5.63,5.63,0,0,0,2.43,1.08v4.57a3.64,3.64,0,0,1-1.54-.58A4,4,0,0,1,10.41,15l-.66.58a4.28,4.28,0,0,0,1.41,1.48,4,4,0,0,0,1.91.56V19h.66V17.66a4.14,4.14,0,0,0,2.5-.91,2.66,2.66,0,0,0,.89-2.1,2.44,2.44,0,0,0-.83-1.87,6,6,0,0,0-2.56-1.19m-.66-.18a4.32,4.32,0,0,1-1.77-.77,1.54,1.54,0,0,1-.56-1.22,1.68,1.68,0,0,1,.63-1.36,2.73,2.73,0,0,1,1.7-.57Zm2.5,4.85a3.2,3.2,0,0,1-1.84.68V12.59a5.1,5.1,0,0,1,1.94.89,1.68,1.68,0,0,1,.57,1.31,1.83,1.83,0,0,1-.67,1.47M13,1.45a11.05,11.05,0,1,0,11,11.05,11.07,11.07,0,0,0-11-11m0,21.21A10.16,10.16,0,1,1,23.19,12.5,10.17,10.17,0,0,1,13,22.66"></path><path class="cls-8" transform="translate(-1.8 -1.27)" d="M13.73,11.59V7.52a2.41,2.41,0,0,1,1.18.4A4.47,4.47,0,0,1,16,9l.69-.39a3.63,3.63,0,0,0-1.2-1.28,3.71,3.71,0,0,0-1.73-.53V5.62h-.66V6.77a4.09,4.09,0,0,0-2.34.87A2.36,2.36,0,0,0,9.9,9.51a2.27,2.27,0,0,0,.74,1.76,5.63,5.63,0,0,0,2.43,1.08v4.57a3.64,3.64,0,0,1-1.54-.58A4,4,0,0,1,10.41,15l-.66.58a4.28,4.28,0,0,0,1.41,1.48,4,4,0,0,0,1.91.56V19h.66V17.66a4.14,4.14,0,0,0,2.5-.91,2.66,2.66,0,0,0,.89-2.1,2.44,2.44,0,0,0-.83-1.87A6,6,0,0,0,13.73,11.59Zm-.66-.18a4.32,4.32,0,0,1-1.77-.77,1.54,1.54,0,0,1-.56-1.22,1.68,1.68,0,0,1,.63-1.36,2.73,2.73,0,0,1,1.7-.57Zm2.5,4.85a3.2,3.2,0,0,1-1.84.68V12.59a5.1,5.1,0,0,1,1.94.89,1.68,1.68,0,0,1,.57,1.31A1.83,1.83,0,0,1,15.57,16.26ZM13,1.45a11.05,11.05,0,1,0,11,11.05A11.07,11.07,0,0,0,13,1.45Zm0,21.21A10.16,10.16,0,1,1,23.19,12.5,10.17,10.17,0,0,1,13,22.66Z"></path></g></g></g></g></g></svg>