<svg xmlns="http://www.w3.org/2000/svg" id="Layer_1" data-name="Layer 1" width="0.34in" height="0.38in" viewBox="0 0 24.43 27.53"><defs><style>.cls-1{fill:#b7ce63;}.cls-2{fill:none;stroke:#b7ce63;stroke-miterlimit:10;stroke-width:0.16px;}</style></defs><path class="cls-1" d="M312.19,289.48a.42.42,0,0,0-.71.3.42.42,0,0,0,.12.29l3.1,3.1c-5.78.57-10.08,4.69-10.08,9.74,0,5.21,4.07,9.44,10.12,9.79v-.82c-5.55-.34-9.3-4.22-9.3-9,0-4.57,3.94-8.32,9.17-8.91l-3,3a.44.44,0,0,0,0,.6.42.42,0,0,0,.59,0l3.77-3.77a.42.42,0,0,0,0-.59Zm16.7,13.7c0-5.21-4.07-9.44-10.12-9.79v.82c5.54.34,9.3,4.22,9.3,9s-4.06,8.43-9.41,8.93l3-3a.44.44,0,0,0,0-.6.42.42,0,0,0-.59,0l-3.77,3.77a.42.42,0,0,0,0,.59l3.77,3.77a.42.42,0,0,0,.71-.3.42.42,0,0,0-.12-.29l-3.08-3.08C324.49,312.45,328.89,308.29,328.89,303.18Zm-10.63,9.4,0,0,0,0Z" transform="translate(-304.54 -289.28)"></path><path class="cls-2" d="M312.19,289.48a.42.42,0,0,0-.71.3.42.42,0,0,0,.12.29l3.1,3.1c-5.78.57-10.08,4.69-10.08,9.74,0,5.21,4.07,9.44,10.12,9.79v-.82c-5.55-.34-9.3-4.22-9.3-9,0-4.57,3.94-8.32,9.17-8.91l-3,3a.44.44,0,0,0,0,.6.42.42,0,0,0,.59,0l3.77-3.77a.42.42,0,0,0,0-.59Zm16.7,13.7c0-5.21-4.07-9.44-10.12-9.79v.82c5.54.34,9.3,4.22,9.3,9s-4.06,8.43-9.41,8.93l3-3a.44.44,0,0,0,0-.6.42.42,0,0,0-.59,0l-3.77,3.77a.42.42,0,0,0,0,.59l3.77,3.77a.42.42,0,0,0,.71-.3.42.42,0,0,0-.12-.29l-3.08-3.08C324.49,312.45,328.89,308.29,328.89,303.18Zm-10.63,9.4,0,0,0,0Z" transform="translate(-304.54 -289.28)"></path><path class="cls-1" d="M316.53,307.32v-1.19a3.4,3.4,0,0,1-1.81-.52l.29-.78a3.13,3.13,0,0,0,1.69.5c.84,0,1.4-.48,1.4-1.15s-.46-1.05-1.33-1.4c-1.2-.47-1.94-1-1.94-2a1.92,1.92,0,0,1,1.78-1.89v-1.19h.73v1.14a3.12,3.12,0,0,1,1.53.41l-.3.78a2.83,2.83,0,0,0-1.48-.4c-.91,0-1.25.54-1.25,1s.44.92,1.46,1.34c1.21.5,1.83,1.11,1.83,2.16a2,2,0,0,1-1.86,2v1.22Z" transform="translate(-304.54 -289.28)"></path></svg>