<svg xmlns="http://www.w3.org/2000/svg" id="Layer_1" data-name="Layer 1" width="0.44in" height="0.33in" viewBox="0 0 31.74 23.87"><defs><style>.cls-1,.cls-2{fill:#b7ce63;}.cls-1{stroke:#fff;stroke-width:0.26px;}.cls-1,.cls-3{stroke-miterlimit:10;}.cls-3{fill:none;stroke:#b7ce63;stroke-width:0.73px;}</style></defs><path class="cls-1" d="M329.74,310.28h-1.05V292.34a1,1,0,0,0-.94-.94h-25.4a.94.94,0,0,0-.94.94v17.94h-1.05V292.34a2,2,0,0,1,2-2h25.4a2,2,0,0,1,2,2Z" transform="translate(-299.18 -290.22)"></path><path class="cls-1" d="M327.64,308.71H302.46V292.45h25.18Zm-24.14-1h23.09V293.5H303.5Z" transform="translate(-299.18 -290.22)"></path><path class="cls-1" d="M328.9,314H301.19a1.88,1.88,0,0,1-1.88-1.88V310.5a.74.74,0,0,1,.74-.74h10.8a.52.52,0,0,1,.52.52.53.53,0,0,0,.53.53h6.82a.52.52,0,0,0,.52-.53.52.52,0,0,1,.53-.52H330a.75.75,0,0,1,.75.74v1.58A1.89,1.89,0,0,1,328.9,314Zm-28.54-3.15v1.27a.83.83,0,0,0,.83.83H328.9a.84.84,0,0,0,.84-.83v-1.27H320.2a1.57,1.57,0,0,1-1.48,1.05H311.9a1.58,1.58,0,0,1-1.49-1.05Z" transform="translate(-299.18 -290.22)"></path><path class="cls-2" d="M315.21,305.51v-1.18a3.32,3.32,0,0,1-1.79-.52l.28-.78a3.12,3.12,0,0,0,1.68.5c.83,0,1.39-.48,1.39-1.14s-.45-1-1.32-1.39c-1.19-.47-1.92-1-1.92-2a1.9,1.9,0,0,1,1.76-1.88v-1.18H316v1.13a3,3,0,0,1,1.52.41l-.29.77a2.79,2.79,0,0,0-1.47-.4c-.9,0-1.24.54-1.24,1s.43.91,1.45,1.33c1.2.49,1.81,1.1,1.81,2.14a2,2,0,0,1-1.85,2v1.22Z" transform="translate(-299.18 -290.22)"></path><line class="cls-3" x1="1.72" y1="13.46" x2="1.72" y2="20.03"></line><line class="cls-3" x1="30.05" y1="13.46" x2="30.05" y2="20.03"></line></svg>