<svg xmlns="http://www.w3.org/2000/svg" xmlns:cc="http://creativecommons.org/ns#" xmlns:dc="http://purl.org/dc/elements/1.1/" xmlns:rdf="http://www.w3.org/1999/02/22-rdf-syntax-ns#" width="15.86" height="29.17" data-name="Layer 1" viewBox="0 0 15.86 29.17"><metadata></metadata><defs><style>.cls-1{fill:none;}.cls-2{clip-path:url(#sti2a);}.cls-3{opacity:0.75;}.cls-4{clip-path:url(#sti2b);}.cls-5{fill:#b7ce63;}</style><clipPath id="sti2a" transform="translate(-5.04 -.13)"><rect class="cls-1" x="5.04" y=".13" width="15.86" height="29.17"></rect></clipPath><clipPath id="sti2b" transform="translate(-5.04 -.13)"><rect class="cls-1" x="-3.96" y="-6.87" width="33.86" height="37.17"></rect></clipPath></defs><title>student_icon2</title><g class="cls-2" clip-path="url(#sti2a)"><g class="cls-2" clip-path="url(#sti2a)"><g class="cls-3"><g class="cls-4" clip-path="url(#sti2b)"><g class="cls-2" clip-path="url(#sti2a)"><path class="cls-5" transform="translate(-5.04 -.13)" d="M18.35.13H7.6A2.56,2.56,0,0,0,5,2.69v24A2.56,2.56,0,0,0,7.6,29.3H18.35a2.56,2.56,0,0,0,2.56-2.56v-24A2.56,2.56,0,0,0,18.35.13m1.53,26.61a1.54,1.54,0,0,1-1.53,1.53H7.6a1.53,1.53,0,0,1-1.53-1.53v-24A1.53,1.53,0,0,1,7.6,1.15H18.35a1.54,1.54,0,0,1,1.53,1.54Zm-6.82-24a.52.52,0,1,0-.51-.51.51.51,0,0,0,.51.51m1.19.51H11.69a.51.51,0,1,0,0,1h2.56a.51.51,0,0,0,0-1M13,24.18h-.07a1.76,1.76,0,0,0-1.76,1.75V26a1.76,1.76,0,0,0,1.76,1.75H13A1.75,1.75,0,0,0,14.76,26v-.08A1.75,1.75,0,0,0,13,24.18M13.74,26a.73.73,0,0,1-.73.73h-.07a.73.73,0,0,1-.73-.73v-.08a.73.73,0,0,1,.73-.73H13a.73.73,0,0,1,.73.73Z"></path></g></g></g></g></g></svg>