<svg xmlns="http://www.w3.org/2000/svg" xmlns:cc="http://creativecommons.org/ns#" xmlns:dc="http://purl.org/dc/elements/1.1/" xmlns:rdf="http://www.w3.org/1999/02/22-rdf-syntax-ns#" width="18.93" height="24.56" data-name="Layer 1" viewBox="0 0 18.93 24.56"><metadata></metadata><defs><style>.cls-1{fill:none;}.cls-2{clip-path:url(#ssi2a);}.cls-3{opacity:0.75;}.cls-4{clip-path:url(#ssi2c);}.cls-5{clip-path:url(#ssi2b);}.cls-6{fill:#b7ce63;}</style><clipPath id="ssi2a" transform="translate(-3.51 -.2)"><rect class="cls-1" x="3.51" y=".2" width="18.93" height="24.56"></rect></clipPath><clipPath id="ssi2c" transform="translate(-3.51 -.2)"><rect class="cls-1" x="-5.49" y="-6.8" width="36.93" height="32.56"></rect></clipPath><clipPath id="ssi2b" transform="translate(-3.51 -.2)"><rect class="cls-1" x="3.51" y=".2" width="18.93" height="24.56"></rect></clipPath></defs><title>supersaver_icon2</title><g class="cls-2" clip-path="url(#ssi2a)"><g class="cls-2" clip-path="url(#ssi2a)"><g class="cls-3"><g class="cls-4" clip-path="url(#ssi2c)"><g class="cls-5" clip-path="url(#ssi2b)"><path class="cls-6" transform="translate(-3.51 -.2)" d="M13,7.78c-5.22,0-9.46,6-9.46,13.35a14.47,14.47,0,0,0,.3,3.29l.12.34H22l.12-.34a14.34,14.34,0,0,0,.3-3.27c0-7.37-4.25-13.37-9.47-13.37m8.28,16H4.7a18,18,0,0,1-.17-2.61C4.53,14.34,8.32,8.81,13,8.81s8.45,5.53,8.45,12.34a17.83,17.83,0,0,1-.17,2.59M15,6.86l3-5.63H13.51L12.82,2,11.23.2H8.14l2.51,6.66ZM10.77,1.23l2.05,2.28L14,2.25h2.26L14.34,5.83h-3L9.62,1.23Z"></path></g></g></g></g></g></svg>