<svg xmlns:dc="http://purl.org/dc/elements/1.1/" xmlns:cc="http://creativecommons.org/ns#" xmlns:rdf="http://www.w3.org/1999/02/22-rdf-syntax-ns#" xmlns:svg="http://www.w3.org/2000/svg" xmlns="http://www.w3.org/2000/svg" xmlns:sodipodi="http://sodipodi.sourceforge.net/DTD/sodipodi-0.dtd" xmlns:inkscape="http://www.inkscape.org/namespaces/inkscape" id="svg815" xml:space="preserve" width="201.49333" height="202" viewBox="0 0 201.49333 202" sodipodi:docname="BSV_logo_CMYK.svg" inkscape:version="0.92.4 (5da689c313, 2019-01-14)"><metadata id="metadata821"></metadata><defs id="defs819"></defs><g id="g823" inkscape:groupmode="layer" inkscape:label="ink_ext_XXXXXX" transform="matrix(1.3333333,0,0,-1.3333333,0,202)"><g id="g825" transform="scale(0.1)"><path d="m 131.934,1513.29 c 0,0 -130.21916,0 -130.21916,-130.22 V 131.941 c 0,0 0,-130.23006 130.21916,-130.23006 H 1379.3 c 0,0 130.22,0 130.22,130.23006 V 1383.07 c 0,0 0,130.22 -130.22,130.22 H 131.934" style="fill:#264A2F;fill-opacity:1;fill-rule:nonzero;stroke:none" id="path827" inkscape:connector-curvature="0"></path><path d="m 291.938,834.016 c 15.136,0 29.511,-0.254 44.195,0.273 14.101,0.508 25.851,9.172 31.836,20.43 10.043,20.801 10.472,45.324 -1.379,65.597 -5.293,10.332 -18.668,17.704 -27.711,18.172 -15.426,0.813 -31.602,0.578 -46.984,0.676 -0.399,0 0.566,0.086 0.043,-0.207 0,-34.5 0,-69.91 0,-104.941 z m 0.468,-245.782 c 14.918,0 29.344,0.09 43.766,0.09 24.008,-0.09 43.215,10.457 55.133,30.352 18.515,32.488 19.289,73.64 2.656,107.051 -8.793,17.929 -24.781,30.332 -44.625,33.796 -7.117,1.243 -14.477,1.379 -21.734,1.524 -11.629,0.234 -23.098,0.148 -35.024,0.148 0,-57.707 -0.172,-115.226 -0.172,-172.961 z m -189.91,406.243 c 0,0 3.617,0.027 6.012,0.019 21.738,-0.051 43.476,0.164 65.215,0.137 57.914,-0.07 115.996,0.722 173.734,-0.442 26.262,-0.527 51.836,-1.914 78.27,-6.66 25.265,-5.652 50.734,-14.336 71.785,-31.433 25.953,-21.086 35.066,-51.153 31.683,-81.594 -5.191,-42.832 -34.144,-70.176 -69.425,-85.418 -2.211,-0.957 -7.54,-2.695 -9.801,-3.574 -0.211,-0.09 0.062,-1.184 -0.09,-2.403 1.781,-0.461 6.078,-1.125 7.82,-1.464 28.856,-5.625 52.918,-15.129 76.438,-33.665 19.801,-16.347 32.019,-39.082 34.535,-65.468 4.629,-55.926 -20.176,-93.739 -66.109,-121.942 -31.711,-18.683 -64.817,-27.695 -101,-31.476 -15.731,-1.641 -28.715,-2.461 -44.68,-2.871 -3.684,-0.078 -22.938,-0.254 -26.145,-0.254 -78.515,0.039 -142.804,-0.008 -221.316,0 -2.469,0 -6.883,0.051 -6.883,0.051 0,14.597 -0.082,25.515 -0.082,40.117 0,3.015 0.066,9.179 0.066,9.179 5.875,-1.906 9.532,-3.144 13.297,-3.925 19.114,-2.598 30.407,6.355 34.403,23.593 1.125,7.539 1.457,10.332 1.597,16.903 0.09,98.722 0.172,197.453 0.09,296.183 -0.004,5.645 -0.59,11.387 -1.687,16.914 -3.055,15.321 -13.465,26.024 -31.106,24.454 -5.578,-0.344 -12.539,-2.735 -16.578,-4.368 0,0 -0.082,4.336 -0.082,6.856 0,14.601 0.039,27.949 0.039,42.551" style="fill:#ffffff;fill-opacity:1;fill-rule:nonzero;stroke:none" id="path829" inkscape:connector-curvature="0"></path><path d="m 1395.62,1012.33 c 0.25,-0.54 0.6,-1.12 0.87,-1.64 9.26,-17.776 8.3,-36.616 0.15,-54.956 -8.44,-18.953 -21.19,-33.769 -35.11,-48.906 -7.4,-7.578 -21.34,-20.566 -27.22,-27.598 -2.94,-6.687 -3.7,-8.593 -13.05,-31.855 -32.4,-79.383 -65.77,-158.516 -98.57,-237.734 -3.68,-8.895 -6.46,-18.055 -6.28,-27.246 0.25,-10.157 5.81,-14.598 15.73,-12.567 2.97,0.606 5.85,2.11 9.18,3.086 0,-16.309 0,-32.676 0,-48.867 -61.53,0 -122.77,0 -184.3,0 0,16.211 0.18,33.066 0.18,49.07 4.23,-1.765 8.2,-3.34 12.3,-3.738 7.49,-0.723 11.89,3.406 12.7,11.043 1.01,9.465 -1.18,17.551 -4.94,26.105 -42.93,97.821 -85.908,195.614 -128.905,293.407 -5.656,12.863 -18,17.929 -33.671,15.089 -6.055,-1.093 -9.582,-2.804 -14.891,-4.882 -4.328,-1.7 -6.418,-3.235 -11.613,-5.645 1.836,3.738 3.34,7.07 4.832,10.008 12.074,23.769 26.047,48.203 38.617,71.574 0,0 0.594,0.262 3.902,0.262 46.563,-0.086 93.009,0.176 139.699,0.012 5.38,-0.02 5.38,-0.235 5.38,-0.235 4.01,-12.324 9.67,-28.144 13.96,-40.383 0.46,-1.328 1.37,-3.621 1.92,-5.293 -5.65,2.286 -10.85,3.555 -15.88,4.289 -8.69,1.004 -13.52,-3.027 -9.54,-12.656 24.64,-59.609 49.13,-119.219 73.78,-178.84 9.53,-23.066 19.02,-46.152 28.54,-69.226 0.61,-1.465 0.97,-2.559 2.19,-5.246 31.14,69.953 60.66,135.715 89.75,207.004 -15.64,0.496 -32.53,12.156 -47.65,18.289 -13.12,5.597 -24.37,11.242 -37.9,13.605 -9.74,2.207 -23.1,2.442 -32.84,-8.762 0,7.961 -0.24,15.332 0.45,22.063 3.31,32 22.68,54.227 55.62,59.441 8.53,1.145 15.42,0.129 22.96,-0.195 14.23,-0.605 28.44,-1.727 42.68,-2.187 26.18,-0.848 52.37,-1.875 78.55,-1.954 9.29,-0.019 19,0.469 27.81,3.821 10.86,4.129 17.13,9.773 20.44,22.443 0.65,0 -0.47,0 0.17,0" style="fill:#ffffff;fill-opacity:1;fill-rule:nonzero;stroke:none" id="path831" inkscape:connector-curvature="0"></path><path d="M 914.496,989.984 C 887.652,939.289 860.805,889.184 833.707,838 c -1.531,3.859 -2.57,7.129 -3.82,10.215 -9.617,23.723 -22.899,44.348 -43.973,59.531 -24.941,17.961 -52.637,23.496 -82.363,19.035 -19.688,-3.488 -33.684,-21.328 -32.871,-41.183 0.39,-9.461 7.722,-18.614 18.769,-21.961 9.297,-2.813 18.789,-4.824 28.262,-7.012 45.488,-10.5 90.937,-21.379 134.969,-37.148 22.328,-8 43.527,-17.668 64.082,-29.629 29.355,-19.258 39.648,-35.039 46.926,-69.075 9.57,-51.269 -3.782,-96.433 -36.133,-136.64 -36.7,-43.653 -81.817,-72.602 -139.969,-80.074 -15.656,-2.02 -31.672,-2.348 -47.492,-2.047 -42.93,2.238 -82.598,10.066 -122.614,21.691 -30.632,8.906 -61.273,18.457 -91.109,29.434 -1.805,0.742 -2.598,1.191 -4.562,1.992 23.406,10.527 48.519,38.379 58.773,68.691 11.246,33.262 7.758,66.289 -5.934,92.383 1.204,-1.113 3.516,-3.437 4.723,-4.551 39.285,-36.121 82.02,-67 131.141,-88.554 23.136,-10.145 47.148,-17.149 72.461,-19.043 13.398,-1.004 26.875,-1.192 39.816,3.574 14.055,6.016 24.258,15.273 27.715,28.859 2.617,10.821 1.309,20.965 -5.617,30.028 -3.36,4.394 -9.453,7.082 -15.262,8.488 -58.898,14.324 -115.773,29.285 -176.301,42.976 -21.765,5.313 -41.73,13.887 -57.679,30.43 -17.875,18.547 -27.293,40.781 -29.567,66.125 -1.687,30.293 4.93,58.563 17.586,85.496 26.738,56.914 71.664,86.133 134.367,94.485 13.782,1.668 25.852,2.8 41.524,3.73 23.691,1.395 46.652,1.25 71.211,0.547 26.664,-0.762 52.589,-4.004 79.613,-8.047 1.082,-0.168 4.117,-0.762 4.117,-0.762" style="fill:#ffffff;fill-opacity:1;fill-rule:nonzero;stroke:none" id="path833" inkscape:connector-curvature="0"></path></g></g></svg>