<svg xmlns="http://www.w3.org/2000/svg" xmlns:xlink="http://www.w3.org/1999/xlink" id="Layer_1" data-name="Layer 1" viewBox="0 0 55.52 55.54"><defs><style>.cls-1,.cls-4{fill:none;}.cls-2{clip-path:url(#clip-path);}.cls-3{fill:#607e1e;}.cls-4{stroke:#607e1e;stroke-miterlimit:10;stroke-width:0.62px;}</style><clipPath id="clip-path" transform="translate(-370.55 -278.02)"><rect class="cls-1" x="370.55" y="278.02" width="55.52" height="55.54"></rect></clipPath></defs><title>contact_icon</title><g class="cls-2"><path class="cls-3" d="M413.51,300.16H397.64a1,1,0,1,1,0-2h15.87a1,1,0,0,1,0,2" transform="translate(-370.55 -278.02)"></path><path class="cls-4" d="M413.51,300.16H397.64a1,1,0,1,1,0-2h15.87a1,1,0,0,1,0,2Z" transform="translate(-370.55 -278.02)"></path><path class="cls-3" d="M404.58,307.1a1,1,0,0,1-.7-.29l-6.95-6.95a1,1,0,1,1,1.41-1.4l6.94,7a1,1,0,0,1,0,1.4,1,1,0,0,1-.7.29" transform="translate(-370.55 -278.02)"></path><path class="cls-4" d="M404.58,307.1a1,1,0,0,1-.7-.29l-6.95-6.95a1,1,0,1,1,1.41-1.4l6.94,7a1,1,0,0,1,0,1.4A1,1,0,0,1,404.58,307.1Z" transform="translate(-370.55 -278.02)"></path><path class="cls-3" d="M397.64,300.16a1,1,0,0,1-.71-1.7l6.95-6.94a1,1,0,0,1,1.4,1.4l-6.94,6.94a1,1,0,0,1-.7.3" transform="translate(-370.55 -278.02)"></path><path class="cls-4" d="M397.64,300.16a1,1,0,0,1-.71-1.7l6.95-6.94a1,1,0,0,1,1.4,1.4l-6.94,6.94A1,1,0,0,1,397.64,300.16Z" transform="translate(-370.55 -278.02)"></path><path class="cls-3" d="M381.36,280.31a2.72,2.72,0,0,0-1.94.9l-.09.08c-.44.35-10.79,8.63-4.46,21.6a14.67,14.67,0,0,0,1.17,1.94,109.22,109.22,0,0,0,10.4,12.86A111.44,111.44,0,0,0,399.25,328a14.76,14.76,0,0,0,2,1.22,18.64,18.64,0,0,0,8.17,2c8.22,0,13.33-6.45,13.38-6.51l.08-.1a2.61,2.61,0,0,0,.88-2.18c-.21-2.24-3.14-4.67-4.25-5.42-.07-.05-4.11-2.93-7.22-2.93a2.87,2.87,0,0,0-2,.69c-.58.67-4.33,4.84-7.8,4.84h0a3.86,3.86,0,0,1-1.76-.41l-.14-.08a83.81,83.81,0,0,1-8.51-7.09,107.68,107.68,0,0,1-7.1-8.53l-.1-.14c-2-3.84,3.57-8.86,4.41-9.59,2-2.22-.91-7.4-2.22-9.22-.82-1.21-3.4-4.29-5.68-4.29m28.06,52.94h0a20.65,20.65,0,0,1-9-2.22,15.22,15.22,0,0,1-2.28-1.38A113.64,113.64,0,0,1,385,319.09,109.38,109.38,0,0,1,374.42,306a16,16,0,0,1-1.33-2.21c-6.81-13.93,4.08-23.27,5-24a4.59,4.59,0,0,1,3.3-1.44c3.8,0,7.16,4.92,7.3,5.13s5.64,7.92,2,11.76l-.08.07c-1.36,1.18-5,5-4,7.14a103.65,103.65,0,0,0,6.86,8.24,82,82,0,0,0,8.21,6.84,1.91,1.91,0,0,0,.8.17h0c2.25,0,5.33-3,6.32-4.19l.08-.08a4.79,4.79,0,0,1,3.43-1.26c3.76,0,8.17,3.15,8.36,3.28s4.74,3.24,5.09,6.86a4.52,4.52,0,0,1-1.42,3.73c-.56.7-6,7.23-14.9,7.23" transform="translate(-370.55 -278.02)"></path><path class="cls-4" d="M381.36,280.31a2.72,2.72,0,0,0-1.94.9l-.09.08c-.44.35-10.79,8.63-4.46,21.6a14.67,14.67,0,0,0,1.17,1.94,109.22,109.22,0,0,0,10.4,12.86A111.44,111.44,0,0,0,399.25,328a14.76,14.76,0,0,0,2,1.22,18.64,18.64,0,0,0,8.17,2c8.22,0,13.33-6.45,13.38-6.51l.08-.1a2.61,2.61,0,0,0,.88-2.18c-.21-2.24-3.14-4.67-4.25-5.42-.07-.05-4.11-2.93-7.22-2.93a2.87,2.87,0,0,0-2,.69c-.58.67-4.33,4.84-7.8,4.84h0a3.86,3.86,0,0,1-1.76-.41l-.14-.08a83.81,83.81,0,0,1-8.51-7.09,107.68,107.68,0,0,1-7.1-8.53l-.1-.14c-2-3.84,3.57-8.86,4.41-9.59,2-2.22-.91-7.4-2.22-9.22C386.22,283.39,383.64,280.31,381.36,280.31Zm28.06,52.94h0a20.65,20.65,0,0,1-9-2.22,15.22,15.22,0,0,1-2.28-1.38A113.64,113.64,0,0,1,385,319.09,109.38,109.38,0,0,1,374.42,306a16,16,0,0,1-1.33-2.21c-6.81-13.93,4.08-23.27,5-24a4.59,4.59,0,0,1,3.3-1.44c3.8,0,7.16,4.92,7.3,5.13s5.64,7.92,2,11.76l-.08.07c-1.36,1.18-5,5-4,7.14a103.65,103.65,0,0,0,6.86,8.24,82,82,0,0,0,8.21,6.84,1.91,1.91,0,0,0,.8.17h0c2.25,0,5.33-3,6.32-4.19l.08-.08a4.79,4.79,0,0,1,3.43-1.26c3.76,0,8.17,3.15,8.36,3.28s4.74,3.24,5.09,6.86a4.52,4.52,0,0,1-1.42,3.73C423.76,326.72,418.32,333.25,409.42,333.25Z" transform="translate(-370.55 -278.02)"></path></g></svg>