<svg xmlns="http://www.w3.org/2000/svg" xmlns:cc="http://creativecommons.org/ns#" xmlns:dc="http://purl.org/dc/elements/1.1/" xmlns:rdf="http://www.w3.org/1999/02/22-rdf-syntax-ns#" width="258.67" height="258.67" viewBox="0 0 258.67 258.67" xml:space="preserve"><metadata></metadata><g transform="matrix(1.3333 0 0 -1.3333 0 258.67)"><g transform="scale(.1)" fill="#fff" fill-rule="evenodd"><path transform="matrix(7.5 0 0 -7.5 0 1940)" d="m130.1 16.066-111.98 63.73v23.031h17.158v79.189h186.85v-79.189h17.467v-22.4l-109.49-64.361zm-0.00586 23.998 70.498 42.275v79.506h-142.55v-79.506l72.057-42.275z"></path><path d="m688.26 1095.4v146.7h559.14v-146.7h-559.14"></path><path d="m688.26 1023.6h559.14v-146.7h-559.14v146.7"></path><path transform="matrix(7.5 0 0 -7.5 0 1940)" d="m132.37 217.82v24.926h12.791c10.293 0 16.221-2.2094 16.221-11.99 0-10.096-6.5509-12.936-15.908-12.936h-13.104zm6.8594 5.3535h6.2383c4.3667 0 8.4219 2.5244 8.4219 7.5723 0 5.6787-3.7429 6.625-9.0469 6.625h-5.6133v-14.197z"></path><path transform="matrix(7.5 0 0 -7.5 0 1940)" d="m200.74 217.82v24.926h6.8613v-10.412h6.5508l7.1758 10.412h7.4863l-7.1758-10.412c4.68-0.6312 6.8633-2.5234 6.8633-6.625 0-5.6787-2.8073-7.8887-9.6699-7.8887h-18.092zm6.8301 5.3926h10.293c2.808 0 4.0566 0.3141 4.0566 1.8906 0 1.8932-0.93519 1.8945-4.3672 1.8945h-9.9824v-3.7852z"></path><path d="m710.68 306.33v-186.93h49.129v113.58l98.257-113.58h58.489v186.93h-49.129v-115.94l-98.258 115.94h-58.488"></path><path d="m228.34 306.33v-186.93h184.82v40.226l-133.35 2.367v144.34h-51.472"></path><path d="m466.09 119.4h180.14v40.226h-126.33v40.223h105.28v37.859h-105.28v28.399h126.33v40.226h-180.14v-186.93"></path><path d="m1267.9 306.33v-186.93l177.8 2.367v37.859h-126.33v40.223h107.61v37.859h-107.61v28.399h126.33v40.226h-177.8"></path><path transform="matrix(7.5 0 0 -7.5 0 1940)" d="m85.574 189.29-6.2402 22.4h4.5469l1.3809-5.0488h5.6152l1.3809 5.0488h4.8574l-6.2383-22.4h-5.3027zm2.5215 4.793 2.1816 8.834h-4.0547l1.873-8.834z"></path><path transform="matrix(7.5 0 0 -7.5 0 1940)" d="m52.041 188.66c-5.6147 0-7.4863 3.1544-7.4863 8.832v5.9961c0 7.5719 4.3666 7.8867 17.156 7.8867l0.3125-1.5781-3.7441-1.2617c0.93587-1.8927 1.248-3.1551 1.248-5.9941v-4.7324c0-5.3631-1.2478-9.1484-7.4863-9.1484zm0.29297 3.7793c2.1839 0 2.4961 0.62967 2.4961 5.0469v5.9941c0 4.1016-0.31273 5.0488-2.8086 5.0488-2.1833 0-2.8066-1.2617-2.8066-5.3633v-5.3633c0-4.1016 0.31127-5.3633 3.1191-5.3633z"></path><path d="m1288.7 397.32c0-26.027 16.38-47.324 53.81-47.324 30.41 0 58.49 21.297 58.49 47.324 0 40.227-74.87 59.157-74.87 85.188 0 9.465 9.36 14.195 18.72 14.195 14.04 0 21.05-9.469 28.07-23.66l23.4 9.465c-2.34 23.656-18.72 42.59-53.81 42.59-28.07 0-51.47-14.196-51.47-42.59 0-47.324 74.86-59.156 74.86-89.918 0-11.832-7.01-16.566-21.05-16.566-14.03 0-23.39 9.468-28.08 26.031l-28.07-4.735"></path><path transform="matrix(7.5 0 0 -7.5 0 1940)" d="m145.5 188.65c-4.6787 0-7.4863 2.5238-7.4863 8.5176v7.2558c0 5.364 1.561 7.5742 7.4863 7.5742 5.928 0 7.4863-2.5247 7.4863-8.5195v-6.9414c0-5.6787-1.5583-7.8867-7.4863-7.8867zm-0.01171 3.4726c2.496 0 2.8086 2.2086 2.8086 4.7324v6.625c0 3.7859-0.9366 5.0469-2.8086 5.0469-2.4947 0-2.8086-1.5778-2.8086-4.7324v-6.9394c0-2.8395 0.31393-4.7324 2.8086-4.7324z"></path><path d="m1601.5 413.88c0-49.692 14.04-63.891 60.83-63.891 36.22 0 46.79 17.176 46.79 35.496v54.414h-49.13v-26.019h16.37v-18.934c0-14.195-4.67-21.297-16.37-21.297-23.4 0-25.74 16.567-25.74 40.231v37.859c0 28.395 2.34 47.324 25.74 47.324 16.37 0 25.73-11.836 28.07-28.394l23.39 9.465c-2.33 28.394-21.05 44.957-53.8 44.957-46.79 0-56.15-26.028-56.15-61.52v-49.691"></path><path d="m1162 520.38v-97.012c0-56.793 9.63-74.949 58.76-74.949 37.43 0 51.2 20.523 51.2 70.215v101.75h-32.76v-97.012c0-37.859-2.34-47.324-21.05-47.324-18.72 0-21.06 14.195-21.06 49.687v94.649h-35.09"></path><path d="m1474.6 520.35v-168h28.08v113.58l39.77-113.58h42.11v168h-28.08v-104.11l-37.43 104.11h-44.45"></path><path d="m480.1 520.38v-101.74c0-47.332 4.679-68.625 51.468-68.625 53.805 0 56.145 26.027 56.145 73.355v97.012h-32.75v-99.379c0-33.129-4.68-42.594-21.055-42.594-18.719 0-21.055 9.465-21.055 47.325v94.648h-32.753"></path><path d="m905.59 520.35v-168h32.75v75.715h39.769v-75.715h32.747v168h-32.747v-63.887h-39.769v63.887h-32.75"></path><path d="m225.97 520.35v-168h84.222v26.027h-51.465v47.324h46.786v23.664h-46.786v44.953h51.465v26.032h-84.222"></path><path d="m743.21 520.35v-168h77.199v26.027h-49.129v141.97h-28.07"></path><path d="m1418.2 520.35v-168h30.41v168h-30.41"></path></g></g></svg>