<svg xmlns="http://www.w3.org/2000/svg" xmlns:cc="http://creativecommons.org/ns#" xmlns:dc="http://purl.org/dc/elements/1.1/" xmlns:rdf="http://www.w3.org/1999/02/22-rdf-syntax-ns#" width="258.67" height="258.67" viewBox="0 0 258.67 258.67" xml:space="preserve"><metadata></metadata><g transform="matrix(1.3333 0 0 -1.3333 0 258.67)"><g transform="scale(.1)" fill="#fff" fill-rule="evenodd"><path d="m476.02 1125.6h255.74c230.57 0 377.65-141.78 377.65-363.07 0-245.14-162.98-364.39-422.7-364.39h-210.69zm239.9-166.86c-9.277 0-21.199-1.324-37.101-1.324v-392.23c129.86 0 230.56 51.68 230.56 201.41 0 128.53-82.156 192.14-193.46 192.14"></path><path d="m1901.8 913.86v192.14c-51.67 21.2-98.06 33.13-162.98 33.13-213.34 0-384.28-161.66-384.28-375s168.29-369.7 380.3-369.7c75.53 0 127.21 15.902 166.96 46.379v192.14c-59.63-37.101-100.7-53.004-156.36-53.004-107.33 0-190.81 78.18-190.81 193.46 0 112.63 84.81 194.78 190.81 194.78 58.3 0 100.71-19.878 156.36-54.328"></path><path d="m30.945 1271.5v-34.45h141.78v34.45c-41.075 1.33-47.7 6.63-47.7 34.45v173.59l84.805-242.49h35.777l91.43 242.49v-169.61c0-35.78 0-35.78-50.351-38.43v-34.45h164.31v34.45c-47.703 0-49.027 5.3-49.027 30.48v169.61c0 27.83 3.972 37.1 49.027 37.1v35.78h-140.46l-71.555-194.79-66.257 194.79h-141.78v-35.78c39.754 0 46.379 0 46.379-34.45v-162.99c0-31.8 0-39.75-46.379-39.75"></path><path d="m718.47 1271.5v-34.45h131.18v34.45c-31.801 1.33-31.801 5.3-31.801 49.03v37.1c0 35.78 15.899 64.93 49.028 64.93 26.504 0 34.453-17.22 34.453-41.08v-78.18c0-26.5-1.324-31.8-33.129-31.8v-34.45h117.93v34.45c-27.824 0-30.473 2.65-30.473 29.15v54.33c0 37.1 17.227 68.91 51.676 68.91 26.5 0 31.8-15.91 31.8-47.71v-79.5c0-22.53 0-25.18-31.8-25.18v-34.45h129.86v34.45c-39.75 0-42.4-1.32-42.4 21.2v88.78c0 50.36-11.93 79.51-63.61 79.51-30.48 0-50.354-11.93-75.526-38.43-13.254 23.85-31.805 39.75-63.605 39.75-33.125 0-55.657-17.22-74.204-42.4v35.78h-99.382v-31.8c39.75 0 43.73-1.33 43.73-33.13v-72.88c0-46.38 0-46.38-43.73-46.38"></path><path d="m37.305 1125.6v-727.47h200.09l1.328 278.27h194.78v168.28h-193.46l-1.324 112.63h209.36v168.28h-410.78"></path><path d="m1153.1 1544.4h92.75v-112.64c25.18 21.21 41.08 29.15 66.25 29.15 53.01 0 88.79-47.7 88.79-113.95 0-71.56-35.78-117.94-96.73-117.94-29.16 0-47.71 9.28-67.58 30.48l-18.56-25.18h-27.82v238.52c0 35.78-2.65 39.75-37.1 39.75zm185.56-197.33c0 50.35-18.55 75.53-45.05 75.53-34.45 0-49.03-27.83-49.03-79.51 0-45.05 17.23-75.53 47.7-75.53 25.18 0 46.38 23.85 46.38 79.51"></path><path d="m1683.1 1271.5v-34.45h143.11v34.45c-39.75 0-43.73-1.32-43.73 30.48v47.7c0 43.73 14.58 83.48 54.33 83.48 2.65 0 5.3 0 13.25-2.65-13.25-6.62-22.53-15.9-22.53-30.47 0-17.24 13.25-29.16 30.48-29.16 21.2 0 35.78 15.9 35.78 39.76 0 29.15-21.21 50.35-50.35 50.35-23.86 0-41.08-11.93-62.28-35.78v30.48h-98.06v-31.8c34.45 0 43.73 0 43.73-29.16v-90.1c0-30.48 0-33.13-43.73-33.13"></path><path d="m1502.9 1340.3c0-42.4 19.88-71.55 55.66-71.55 31.8 0 46.38 18.56 51.68 47.71h39.75c-6.62-55.66-43.73-86.14-96.73-86.14-63.61 0-111.31 38.43-111.31 112.64 0 67.58 42.4 117.93 106.01 117.93 62.28 0 102.03-47.71 102.03-120.59zm45.06 86.32c-26.5 0-42.4-18.56-42.4-51.68h83.48c0 34.45-13.25 51.68-41.08 51.68"></path><path d="m538.28 1340.3c0-42.4 21.203-71.55 56.981-71.55 31.801 0 46.375 18.56 51.676 47.71h38.429c-6.625-55.66-42.402-86.14-95.406-86.14-63.605 0-112.63 38.43-112.63 112.64 0 67.58 43.727 117.93 107.33 117.93 62.278 0 100.71-47.71 100.71-120.59zm46.368 86.32c-26.5 0-42.403-18.56-42.403-51.68h82.156c0 35.78-13.253 51.68-39.753 51.68"></path><path d="m1130.6 398.17h200.09v727.47h-200.09v-727.47"></path></g></g></svg>