<svg xmlns="http://www.w3.org/2000/svg" id="Layer_1" data-name="Layer 1" viewBox="0 0 45.11 54.67"><defs><style>.cls-1{fill:#607e1e;}.cls-2{fill:none;stroke:#607e1e;stroke-miterlimit:10;stroke-width:0.48px;}</style></defs><title>locator_icon</title><path class="cls-1" d="M402.76,295.81a7,7,0,1,0-7,7.13A7.09,7.09,0,0,0,402.76,295.81Zm-12.14,0a5.11,5.11,0,1,1,5.1,5.17A5.13,5.13,0,0,1,390.62,295.81Zm5.08,32.05.73-.87c.65-.77,15.76-18.83,15.71-30.63,0-9.46-7.4-17.16-16.42-17.16s-16.41,7.7-16.41,17.16c0,11.8,15,29.86,15.65,30.62Zm0-46.71c8,0,14.45,6.83,14.49,15.21,0,9.66-11.45,24.64-14.51,28.45-3-3.81-14.46-18.8-14.46-28.45C381.24,288,387.74,281.15,395.72,281.15ZM413.27,315h-5.81v1.94h3.87l3.87,14.5H376.52l3.86-14.5h2.91V315h-4.84l-4.84,18.38H418.1Z" transform="translate(-373.3 -278.95)"></path><path class="cls-2" d="M402.76,295.81a7,7,0,1,0-7,7.13A7.09,7.09,0,0,0,402.76,295.81Zm-12.14,0a5.11,5.11,0,1,1,5.1,5.17A5.13,5.13,0,0,1,390.62,295.81Zm5.08,32.05.73-.87c.65-.77,15.76-18.83,15.71-30.63,0-9.46-7.4-17.16-16.42-17.16s-16.41,7.7-16.41,17.16c0,11.8,15,29.86,15.65,30.62Zm0-46.71c8,0,14.45,6.83,14.49,15.21,0,9.66-11.45,24.64-14.51,28.45-3-3.81-14.46-18.8-14.46-28.45C381.24,288,387.74,281.15,395.72,281.15ZM413.27,315h-5.81v1.94h3.87l3.87,14.5H376.52l3.86-14.5h2.91V315h-4.84l-4.84,18.38H418.1Z" transform="translate(-373.3 -278.95)"></path></svg>