<svg xmlns="http://www.w3.org/2000/svg" id="Layer_1" data-name="Layer 1" viewBox="0 0 44.17 54.56"><defs><style>.cls-1{fill:#607e1e;}.cls-2{fill:none;stroke:#607e1e;stroke-miterlimit:10;stroke-width:0.71px;}</style></defs><title>online_banking_icon</title><path class="cls-1" d="M412.57,291.7h-1.14a5.09,5.09,0,0,0-4.15,2.16,5.09,5.09,0,0,0-4.15-2.16H402a5.11,5.11,0,0,0-4.16,2.16,5.09,5.09,0,0,0-4.15-2.16h-1.14a5.05,5.05,0,0,0-3.21,1.17v-8a5.47,5.47,0,0,0-5.47-5.47h-.4a5.48,5.48,0,0,0-5.47,5.47v17.05c-1.78,1.5-3.78,3.83-3.78,6.34v10.86c0,7.92,7,14.13,14.76,14.13h14.49a14.18,14.18,0,0,0,14.21-14.13V296.8A5.11,5.11,0,0,0,412.57,291.7Zm3.21,27.44a12.15,12.15,0,0,1-12.32,12.24H389c-6.8,0-12.87-5.26-12.87-12.24V308.28c0-2.08,1.86-4,3.4-5.12l.38-.28v-18a3.58,3.58,0,0,1,3.58-3.58h.4a3.58,3.58,0,0,1,3.58,3.58V308.7a.95.95,0,1,0,1.89,0V296.8a3.21,3.21,0,0,1,3.21-3.21h1.14a3.21,3.21,0,0,1,3.21,3.21v11.9a.95.95,0,1,0,1.89,0V296.8a3.21,3.21,0,0,1,3.21-3.21h1.14a3.21,3.21,0,0,1,3.2,3.21v11.9a.95.95,0,1,0,1.89,0V296.8a3.21,3.21,0,0,1,3.21-3.21h1.14a3.21,3.21,0,0,1,3.21,3.21Z" transform="translate(-373.86 -279.06)"></path><path class="cls-2" d="M412.57,291.7h-1.14a5.09,5.09,0,0,0-4.15,2.16,5.09,5.09,0,0,0-4.15-2.16H402a5.11,5.11,0,0,0-4.16,2.16,5.09,5.09,0,0,0-4.15-2.16h-1.14a5.05,5.05,0,0,0-3.21,1.17v-8a5.47,5.47,0,0,0-5.47-5.47h-.4a5.48,5.48,0,0,0-5.47,5.47v17.05c-1.78,1.5-3.78,3.83-3.78,6.34v10.86c0,7.92,7,14.13,14.76,14.13h14.49a14.18,14.18,0,0,0,14.21-14.13V296.8A5.11,5.11,0,0,0,412.57,291.7Zm3.21,27.44a12.15,12.15,0,0,1-12.32,12.24H389c-6.8,0-12.87-5.26-12.87-12.24V308.28c0-2.08,1.86-4,3.4-5.12l.38-.28v-18a3.58,3.58,0,0,1,3.58-3.58h.4a3.58,3.58,0,0,1,3.58,3.58V308.7a.95.95,0,1,0,1.89,0V296.8a3.21,3.21,0,0,1,3.21-3.21h1.14a3.21,3.21,0,0,1,3.21,3.21v11.9a.95.95,0,1,0,1.89,0V296.8a3.21,3.21,0,0,1,3.21-3.21h1.14a3.21,3.21,0,0,1,3.2,3.21v11.9a.95.95,0,1,0,1.89,0V296.8a3.21,3.21,0,0,1,3.21-3.21h1.14a3.21,3.21,0,0,1,3.21,3.21Z" transform="translate(-373.86 -279.06)"></path></svg>