<svg xmlns="http://www.w3.org/2000/svg" id="Layer_1" data-name="Layer 1" viewBox="0 0 72.63 49.69"><defs><style>.cls-1{fill:#607e1e;}</style></defs><title>payment_icon</title><path class="cls-1" d="M424.17,306.56l-2.8,2.39a53.43,53.43,0,0,0-10.79-14.75c-8-7.76-15.49-8.61-18.32-8a27.67,27.67,0,0,1-5.07.76l-2.41.09a16,16,0,1,0,3.73,23.79c2.83,1.14,7.11,3.25,8,4.69,1.61,2.67,5.6,6.45,8,7a39.06,39.06,0,0,1,7.26,2.79l.52.33-1.39,3.41,10.35,5.17,11.72-21.71Zm-40.88,5.7a13.63,13.63,0,1,1,6.58-12.43,5,5,0,0,0-4.14,1.64,5.12,5.12,0,0,0-1.77,4.47,6.22,6.22,0,0,0,2.46,3.71A13.34,13.34,0,0,1,383.29,312.26Zm8.46-15.69a5.09,5.09,0,0,1,.55,0c4.43.59,5,.81,5.4,1.51.23.39.64,1,1.12,1.63a22.89,22.89,0,0,1,2.4,3.77,3.52,3.52,0,0,1,.15,1,1.75,1.75,0,0,1-.08.64A4.6,4.6,0,0,1,400,305a13.78,13.78,0,0,1-3.82-2.15,23.12,23.12,0,0,0-3.91-2.34A16.41,16.41,0,0,0,391.75,296.57Zm28.46,34.58L413.87,328l1.3-3.21L413,323.38a40,40,0,0,0-8-3.09c-1.55-.38-5.14-3.67-6.52-6-1.58-2.63-8.14-5.29-9.61-5.86-.66-.35-2.38-1.54-2.6-2.9a2.93,2.93,0,0,1,1.1-2.43c2-1.94,4.11-.69,7.42,1.6a15.43,15.43,0,0,0,4.59,2.51c1.16.29,2.62.51,3.55-.31a2.9,2.9,0,0,0,.69-2.58c0-.23,0-.52-.07-.82-.16-1.14-.72-2.23-2.83-5.17-.44-.61-.82-1.14-1-1.47-1.06-1.75-2.55-2-7.12-2.64a7.15,7.15,0,0,0-1.67,0,16.76,16.76,0,0,0-1-1.89,15.88,15.88,0,0,0-2.45-3.09,22.16,22.16,0,0,0,5.24-.73c1.93-.43,8.61.06,16.16,7.37a49.62,49.62,0,0,1,10.9,15.41l.62,1.54,3.88-3.31,5.49,3.79Z" transform="translate(-360.29 -284.61)"></path></svg>