<svg xmlns="http://www.w3.org/2000/svg" xmlns:cc="http://creativecommons.org/ns#" xmlns:dc="http://purl.org/dc/elements/1.1/" xmlns:rdf="http://www.w3.org/1999/02/22-rdf-syntax-ns#" width="908.91" height="389.89" viewBox="0 0 908.91 389.89" xml:space="preserve"><metadata></metadata><g transform="matrix(1.3333 0 0 -1.3333 0 389.89)"><g transform="scale(.1)"><path d="m4461.8 1619.3-1055.8 175.67-1051.1-175.67v1158.8h2106.9v-1158.8" fill="#1a3374"></path><path d="m4461.8 2778.1v-1158.8l-1055.8 175.67-1051.1-175.67v1158.8h2106.9" fill="#1a3374"></path><g fill="#fff"><path d="m2937.8 1991-1.22 0.04c-48.6 1.7-75.61 2.45-107.23 2.45-33.25 0-63.39-0.88-113.81-2.45l-1.2-0.04-1.08 0.54c-4.76 2.36-6.7 8.61-6.97 13.65-0.31 6.74 2.14 12.41 6.56 15.18l2.15 0.71 29.5 2.47c42.54 3.73 46.45 11.93 46.45 97.71v366.48c0 21.45 0 21.45-19.81 21.45h-45.08c-37.93 0-79.19-2.28-97.63-19.22-19.34-17.75-27.31-35.84-35.73-54.99l-0.51-1.16-0.99-0.75c-3.91-2.92-9.25-3.89-14.85-2.55-6.06 1.45-11.29 5.27-13.65 9.98l-0.91 1.82 0.69 1.93c13.18 37.05 25.29 88.9 30.96 121.38l0.36 2.03 1.7 1.14c3.52 2.38 16.89 4.13 21.63-0.62l1.03-1.03 0.28-1.46c3.85-20.59 24.11-21.21 61.55-21.49h335.46c43.94 0 48.97 1.72 59.79 20.55l0.85 1.45 1.55 0.61c5.39 2.18 17.64 1.61 20.82-4.79l0.8-1.63-0.46-1.74c-8.86-33.04-14.53-99.35-12.14-122.9l0.13-1.39-0.61-1.23c-2.08-4.16-6.7-6.95-12.71-7.64-5.21-0.6-12.66 0.37-16.59 5.07l-0.9 1.09-0.17 1.42c-3.57 29.9-10.35 50.51-18.57 56.56-17.82 13.16-48 19.56-92.27 19.56h-58.21c-7.56 0-15.4 0-17.22-1.81-1.78-1.8-1.78-8.88-1.76-18.69v-367.43c0-87.84 2.51-93.33 44.87-97.71l28.42-3.25c3.63-2.42 5.47-7.58 5.04-14.16-0.36-5.5-2.44-12.22-7.23-14.6l-1.08-0.54"></path><path d="m3434.4 1980.3c-83.27 0-150.93 18.24-206.83 55.73-76.45 52.59-118.54 134.07-118.54 229.47 0 88.61 38.34 169.18 105.18 221.05 59.23 46.24 136.79 70.7 224.29 70.7 42.52 0 105.46-8.54 146.4-19.85l2-0.51c8.24-2.05 13.22-3.27 19.15-2.65l5.1 0.56 0.22-5.11c0.86-19.83 5.09-71.7 11.44-120.1l0.24-1.85-1.08-1.54c-2.55-3.57-7.17-6.02-12.72-6.7-6.19-0.84-12.44 0.79-16.43 4.19l-1.24 1.04-0.33 1.57c-16.98 76.92-71.95 115.94-163.4 115.94-109.85 0-227.23-64.22-227.23-244.44 0-157 95.92-262.49 238.71-262.49 106.44 0 150.25 71.53 166.89 114.18l0.51 1.33 1.16 0.82c4.96 3.56 11.92 3.69 16.87 2.57 5.29-1.16 9.36-3.78 11.4-7.36l0.8-1.4-0.2-1.61c-5.71-42.41-26.74-97.41-40.35-114.67l-1.14-1.44-1.83-0.32c-9.66-1.59-19.49-4.92-27.84-7.95-18.93-6.89-78.95-19.16-131.2-19.16"></path><path d="m3949.3 1980.3c-4.72 0-9.47 0.94-14.08 2.81l-2.24 0.9-0.6 2.32c-8.95 34.22-22.62 73.72-37.48 108.38l-144.34 355.92c-18.74 45.64-29.8 60.47-62.53 64.27l-16.21 1.79-1.12 0.98c-3.84 3.29-5.88 8.72-5.45 14.52 0.45 5.83 3.29 10.94 7.66 13.67l1.32 0.83 1.56-0.12c24.37-1.68 50.56-2.43 84.94-2.43 34.01 0 62.65 0.71 98.97 2.45l1.39 0.06 1.23-0.69c4.12-2.36 6.97-7.4 7.53-13.45 0.6-6.04-1.31-11.58-5.13-14.84l-1.05-0.94-13.74-1.83c-27.97-3.67-33.36-7.79-34.26-10.79 2.28-9.94 16.1-53.16 40.51-112.99 36.81-92.8 73.13-183.53 112.14-273.03 23.4 50.71 53.21 121.84 74.14 172.19 24.74 56.13 62.45 148.72 76.23 183.58 6.21 16.31 7 24.71 7 30.22 0 1.96-5.88 7.77-32.65 10.82l-16.18 1.79-1.12 0.98c-3.82 3.26-5.73 8.83-5.17 14.88 0.6 6.03 3.41 11.05 7.53 13.41l1.27 0.73 1.46-0.12c21.94-1.57 52.08-2.43 84.92-2.43 26.66 0 51.86 0.77 79.23 2.45l1.42 0.08 1.27-0.71c3.6-2.06 5.99-6.24 6.74-11.76 0.71-5.38-0.3-12.49-4.12-16.29l-1.27-1.27-26.36-1.76c-16.85-1.42-28.15-9.08-38.9-26.44-21.98-36.91-52.79-100.19-91.51-187.99l-44.29-100.83c-31.3-72.04-70.62-168.53-85.07-213.53l-0.52-1.59-1.39-0.94c-3.14-2.1-7.3-3.26-11.68-3.26"></path></g><path d="m4461.8 2847.6h-2106.9v76.68h2106.9v-76.68" fill="#960a2c"></path><g fill="#1a3374"><path d="m354.43 815.8c0-103.09 1.945-116.83 58.89-122.72l31.426-2.937c5.887-3.93 3.918-21.602-1.969-24.539-55.96 1.949-89.332 2.937-128.62 2.937-39.257 0-73.617-0.988-136.44-2.937-5.887 2.937-7.859 19.617 0 24.539l35.344 2.937c55.957 4.922 60.859 19.633 60.859 122.72v438.83c0 30.43 0 31.42-29.457 31.42h-53.988c-42.219 0-96.207-1.96-120.76-24.55-23.547-21.6-33.375-43.2-44.16-67.73-7.8594-5.9-21.602-0.98-25.543 6.87 15.715 44.18 30.441 107.01 37.316 146.28 2.9531 1.96 15.715 2.94 18.644 0 5.8829-31.42 38.297-30.44 83.445-30.44h397.6c53.027 0 61.844 1.97 76.57 27.48 4.93 1.97 15.715 0.99 17.688-2.94-10.813-40.24-17.688-119.76-14.731-149.22-3.914-7.86-20.613-7.86-25.515-1.96-2.957 24.55-9.829 60.86-24.555 71.66-22.586 16.69-59.875 24.55-113.89 24.55h-69.703c-29.43 0-28.445-0.99-28.445-33.38v-436.87"></path><path d="m767.53 982.92c0-15.461 0-24.922 2.582-28.352 2.586-2.57 15.477-4.289 59.266-4.289 30.922 0 63.574 3.43 88.477 22.328 23.199 18.051 42.964 48.101 42.964 106.51 0 67.85-42.113 132.28-137.44 132.28-53.27 0-55.852-3.43-55.852-27.48zm-70.422 122.82c0 81.61-2.582 96.21-37.792 100.51l-27.489 3.44c-6.019 4.3-6.019 18.04 0.852 21.48 48.101 4.28 107.36 6.87 191.56 6.87 53.243 0 103.93-4.3 143.45-25.78 41.232-21.47 71.272-60.12 71.272-120.26 0-81.59-64.401-126.26-107.36-143.44-4.289-5.149 0-13.739 4.289-20.61 68.713-110.82 114.26-179.53 172.67-228.49 14.59-12.891 36.06-22.332 59.26-24.051 4.29-1.719 5.14-8.59 0.85-12.031-7.72-2.57-21.47-4.297-37.79-4.297-73.01 0-116.82 21.477-177.82 108.25-22.321 31.77-57.532 91.027-84.165 129.69-12.89 18.902-26.632 27.492-60.992 27.492-38.648 0-40.379-0.871-40.379-18.903v-108.23c0-90.188 1.731-100.5 51.539-107.37l18.059-2.571c5.141-4.312 3.434-18.902-1.73-21.492-38.649 1.742-67.868 2.59-102.23 2.59-36.063 0-66.984-0.848-107.36-2.59-5.141 2.59-6.871 15.481-1.703 21.492l21.464 2.571c49.809 6.019 51.539 17.179 51.539 107.37v308.36"></path><path d="m1592.3 1019.8c0 53.27-1.7 152.04-16.33 177.81-5.99 10.31-21.46 16.33-42.93 18.03l-21.47 1.73c-5.17 6.01-3.44 17.18 1.7 20.62 32.66-1.73 64.43-2.59 97.94-2.59 36.06 0 59.26 0.86 90.18 2.59 6.88-4.3 6.02-15.48 1.71-20.62l-20.62-1.73c-21.46-1.7-38.64-9.44-42.93-20.61-12.89-28.34-12.04-127.13-12.04-175.23v-97.061c0-74.73-12.01-153.76-60.11-205.3-36.95-40.359-100.5-62.699-164.07-62.699-59.26 0-118.53 11.16-160.64 47.25-45.51 37.801-66.98 100.5-66.98 202.72v202.72c0 89.33-1.73 103.92-51.54 108.21l-21.47 1.73c-5.16 3.44-3.43 18.03 1.71 20.62 42.96-1.73 72.15-2.59 106.51-2.59 35.21 0 63.58 0.86 105.66 2.59 5.14-2.59 6.87-17.18 1.7-20.62l-20.61-1.73c-49.81-4.29-51.54-18.88-51.54-108.21v-185.54c0-138.3 42.96-229.35 174.38-229.35 124.54 0 171.79 97.922 171.79 228.48v98.78"></path><path d="m1858.7 654.79c-72.15 0-117.67 22.34-134 31.781-10.3 18.91-21.46 79.891-23.2 120.25 4.29 6.02 17.18 7.739 20.62 2.59 12.89-43.82 48.1-127.98 147.74-127.98 72.15 0 107.37 47.242 107.37 98.769 0 37.801-7.73 79.891-70.43 120.26l-81.6 53.25c-42.94 28.34-92.77 77.309-92.77 147.75 0 81.6 63.57 147.74 175.23 147.74 26.63 0 57.55-4.29 79.87-11.16 11.19-2.59 23.2-5.17 30.07-5.17 7.73-20.61 15.48-68.72 15.48-104.78-3.44-5.17-17.18-7.74-21.5-2.58-11.16 41.23-34.35 97.05-116.82 97.05-84.16 0-102.19-55.82-102.19-95.33 0-49.82 41.23-85.04 73-105.65l68.72-42.959c54.12-33.5 107.36-83.32 107.36-164.92 0-94.48-71.3-158.91-182.95-158.91"></path><path d="m2355.2 797.38c0-90.188 1.7-102.21 51.54-107.37l27.48-2.571c5.14-3.441 3.44-18.902-1.73-21.492-48.95 1.742-78.14 2.59-112.5 2.59s-64.43-0.848-119.4-2.59c-5.17 2.59-6.88 17.18 0 21.492l30.92 2.571c48.95 4.297 53.24 17.179 53.24 107.37v383.95c0 26.64 0 27.49-25.75 27.49h-47.25c-36.95 0-84.17-1.7-105.66-21.47-20.62-18.89-29.19-37.79-38.65-59.26-6.87-5.17-18.88-0.86-22.32 6.01 13.74 38.66 26.61 93.63 32.63 127.99 2.58 1.7 13.74 2.57 16.32 0 5.15-27.49 33.51-26.64 73.01-26.64h347.87c46.4 0 54.12 1.72 67.02 24.06 4.28 1.71 13.74 0.85 15.44-2.59-9.42-35.21-15.44-104.78-12.86-130.56-3.44-6.87-18.06-6.87-22.35-1.71-2.58 21.47-8.57 53.25-21.46 62.7-19.77 14.6-52.39 21.47-99.64 21.47h-61c-25.75 0-24.9-0.85-24.9-29.19v-382.25"></path></g><path d="m2841.2 1137.5c0-37.24 24.82-69.15 72.69-96.63 30.15 20.38 53.19 49.64 53.19 92.19 0 39.01-19.5 77.12-62.04 77.12-39.02 0-63.84-36.34-63.84-72.68zm-65.57-295.19c0-78.902 54.06-133.86 132.05-133.86 59.4 0 112.58 34.578 152.48 81.558-42.56 74.461-113.46 153.35-184.39 200.33-44.32-22.161-100.14-76.231-100.14-148.03zm460.05 249.97c66.48 0 101.06 1.78 124.97 3.55 6.21-4.44 6.21-15.96 1.79-21.27l-39.02-6.21c-48.74-7.97-74.44-52.31-101.93-96.629-29.25-46.972-65.6-96.609-102.84-148.03 15.08-23.93 20.4-31.019 29.27-44.32 46.99-71.801 92.19-79.77 128.52-79.77 27.48 0 59.39 10.621 79.79 31.91 7.09-0.902 12.41-7.98 9.75-15.96-35.45-44.321-85.98-59.391-140.95-59.391-39.87 0-78.01 10.641-94.84 25.699-13.3 11.531-44.32 64.723-54.07 81.551-50.53-56.731-114.35-107.25-193.24-107.25-124.99 0-173.76 89.531-173.76 159.55 0 92.199 64.72 146.26 143.61 193.25-31.91 22.16-68.26 56.73-68.26 107.26 0 70.02 60.3 119.66 124.12 119.66 67.35 0 114.34-44.32 114.34-105.48 0-58.5-46.11-81.56-89.52-106.37 48.74-30.148 109.92-86.879 169.29-173.75 20.4 27.488 67.38 103.72 92.21 155.14 15.05 30.13 19.49 43.42 19.49 48.75 0 6.21-8.87 11.52-23.06 13.29l-30.13 3.54c-5.32 5.33-5.32 16.85 1.76 21.28h72.71" fill="#960a2c"></path><g fill="#1a3374"><path d="m3379.9 1295.9c-5.89 5.9-4.93 19.64 2.93 23.57 26.5-1.97 70.69-2.95 101.13-2.95 27.49 0 77.56 0.98 111.92 2.95 8.81-2.95 7.85-16.7 1.94-23.57l-22.56-1.96c-20.61-1.97-32.41-7.85-32.41-16.68 0-11.79 20.61-61.86 51.06-131.56 54.97-122.72 112.9-245.43 169.84-366.19 23.55 49.09 49.09 104.06 75.59 159.05 7.86 18.64 15.72 35.339 15.72 40.242 0 4.918-2.96 13.75-7.86 25.528-34.36 78.54-70.69 157.08-108 235.61-14.73 30.45-29.46 51.06-62.83 54l-23.55 1.96c-6.87 7.86-5.91 19.64 1.95 23.57 28.47-1.97 65.78-2.95 105.04-2.95 49.09 0 85.42 0.98 108.01 2.95 6.87-2.95 7.85-15.71 1.97-23.57l-25.55-1.96c-38.27-2.94-40.24-9.81-20.61-54 19.63-48.1 48.1-109.94 75.59-170.82 18.67 38.29 36.33 75.6 57.93 128.61 35.34 83.44 30.44 94.24-0.99 96.21l-29.46 1.96c-6.87 9.82-4.9 20.62 1.98 23.57 26.5-1.97 55.95-2.95 92.28-2.95 32.39 0 71.68 0.98 94.24 2.95 6.87-2.95 7.85-15.71 1.97-23.57l-28.47-1.96c-41.23-2.94-58.89-47.13-80.49-87.37-20.62-36.33-61.85-121.73-76.58-156.09-4.93-9.83-8.84-19.65-8.84-23.57 0-3.93 1.97-11.78 6.87-23.56 33.37-75.591 67.73-149.22 100.15-223.84 30.41 68.73 58.89 137.45 88.34 207.15 18.65 47.119 71.68 177.69 78.55 195.37 12.76 35.34 29.43 77.56 29.43 89.33 0 13.74-11.77 21.6-32.39 22.58l-28.47 1.96c-7.86 8.84-6.87 19.64 0.99 23.57 37.31-1.97 63.81-2.95 94.26-2.95 37.28 0 65.76 0.98 91.27 2.95 7.86-2.95 8.84-15.71 1.97-23.57l-18.64-1.96c-49.09-4.91-57.93-34.35-116.82-170.82l-71.67-165.92c-42.22-100.13-82.46-196.33-122.74-301.38-2.93-1.972-6.87-2.961-11.77-2.961s-9.8 0.989-13.74 2.961c-31.4 87.379-88.35 210.08-118.79 278.81-35.35-71.668-94.24-197.33-122.71-278.81-2.95-1.972-6.87-2.961-11.8-2.961-4.9 0-9.8 0.989-14.73 2.961-16.67 41.231-54.97 129.59-67.73 158.05-62.83 136.46-123.69 272.92-187.5 409.39-18.65 40.25-30.45 66.76-71.68 70.68l-23.54 1.96"></path><path d="m4361.7 1106.6c0 89.33-1.7 102.21-52.39 108.23l-13.74 1.72c-5.14 3.43-3.44 18.89 1.73 21.48 36.91-1.73 66.13-2.59 101.34-2.59h161.49c54.97 0 105.66 0 115.96 2.59 5.14-14.61 10.31-76.46 13.75-114.25-3.44-5.15-17.18-6.87-21.47-1.72-12.89 40.38-20.61 70.44-65.28 81.61-18.06 4.29-45.55 5.14-83.34 5.14h-61.85c-25.75 0-25.75-1.7-25.75-34.36v-171.79c0-24.049 2.58-24.049 28.34-24.049h49.83c36.06 0 62.7 1.731 73.01 5.16 10.3 3.438 16.32 8.578 20.61 30.059l6.87 35.23c4.29 5.14 18.89 5.14 22.32-0.87 0-20.61-3.43-54.11-3.43-86.759 0-30.921 3.43-63.55 3.43-82.461-3.43-6.011-18.03-6.011-22.32-0.851l-7.72 33.5c-3.44 15.453-9.46 28.34-26.64 32.633-12.03 3.429-32.65 4.297-66.13 4.297h-49.83c-25.76 0-28.34-0.868-28.34-23.18v-121.13c0-45.531 2.58-74.719 16.33-89.328 10.3-10.313 28.33-19.75 103.92-19.75 66.14 0 91.04 3.437 109.95 12.879 15.45 8.59 38.65 38.66 60.99 83.328 6 4.281 18.04 1.699 21.47-6.02-6.02-30.07-27.49-96.211-38.65-119.41-77.32 1.742-153.76 2.59-230.2 2.59h-77.32c-36.94 0-66.13-0.848-116.82-2.59-5.14 2.59-6.87 16.332-1.7 21.492l28.34 2.571c48.95 4.297 53.24 17.179 53.24 107.37v309.23"></path><path d="m4937.3 944.26c-6.88-19.75-6.02-20.621 18.03-20.621h105.66c24.9 0 26.6 3.441 18.88 26.64l-46.37 140.02c-6.87 20.61-14.62 43.8-19.76 54.1h-1.73c-2.56-4.3-11.16-24.91-20.62-50.67zm170.06-76.442c-6.02 18.899-9.46 21.469-35.21 21.469h-129.71c-21.47 0-26.64-2.57-32.63-20.617l-30.07-90.184c-12.89-38.648-18.91-61.847-18.91-71.297 0-10.312 4.31-15.453 24.93-17.179l28.34-2.571c6.02-4.312 6.02-18.05-1.73-21.492-22.32 1.742-48.96 1.742-89.34 2.59-28.34 0-59.26-1.719-82.46-2.59-5.14 3.442-6.87 17.18-1.7 21.492l28.34 2.571c20.61 1.726 39.52 11.168 51.54 42.09 15.47 39.507 39.52 95.339 75.58 191.54l87.63 231.94c12.01 30.92 17.18 47.23 14.6 60.98 20.61 6 35.21 21.48 44.66 32.64 5.14 0 11.16-1.72 12.89-7.73 11.16-37.79 24.91-77.32 37.8-115.11l117.67-345.29c24.9-73.879 36.06-86.761 73.01-91.058l23.19-2.571c6.02-4.312 4.29-18.05 0-21.492-35.21 1.742-65.28 2.59-103.92 2.59-41.23 0-73.89-1.719-98.79-2.59-6.87 3.442-7.72 17.18-1.73 21.492l24.93 2.571c18.03 1.726 30.04 6.867 30.04 15.468 0 9.442-4.29 24.899-11.16 45.52l-37.79 116.82"></path><path d="m5407.2 1106.6c0 90.2-1.71 103.94-55.83 108.23l-21.46 1.72c-5.17 3.43-3.44 18.89 1.7 21.48 48.1-1.73 77.32-2.59 111.68-2.59 33.51 0 62.7 0.86 105.66 2.59 5.14-2.59 6.87-18.05 1.7-21.48l-20.61-1.72c-50.69-4.29-52.39-18.03-52.39-108.23v-298.92c0-54.109 2.58-76.453 18.03-92.769 9.45-9.442 25.78-19.75 93.62-19.75 73.03 0 91.06 3.437 104.81 11.16 17.18 10.309 39.5 41.227 56.67 85.047 5.17 4.281 21.5 0.851 21.5-5.168 0-9.441-24.05-97.063-36.09-120.26-43.81 1.742-125.4 2.59-213.88 2.59h-79.02c-36.09 0-63.58-0.848-111.68-2.59-5.14 2.59-6.87 16.332-1.7 21.492l25.75 2.571c49.83 5.16 51.54 17.179 51.54 107.37v309.23"></path><path d="m5955.5 797.38c0-90.188 1.7-102.21 51.54-107.37l27.48-2.571c5.14-3.441 3.44-18.902-1.73-21.492-48.95 1.742-78.14 2.59-112.5 2.59s-64.43-0.848-119.41-2.59c-5.16 2.59-6.87 17.18 0 21.492l30.93 2.571c48.95 4.297 53.24 17.179 53.24 107.37v383.95c0 26.64 0 27.49-25.76 27.49h-47.25c-36.94 0-84.16-1.7-105.65-21.47-20.62-18.89-29.2-37.79-38.65-59.26-6.87-5.17-18.89-0.86-22.32 6.01 13.74 38.66 26.61 93.63 32.63 127.99 2.58 1.7 13.74 2.57 16.32 0 5.14-27.49 33.51-26.64 73.01-26.64h347.87c46.4 0 54.12 1.72 67.01 24.06 4.29 1.71 13.75 0.85 15.45-2.59-9.43-35.21-15.45-104.78-12.86-130.56-3.44-6.87-18.06-6.87-22.35-1.71-2.58 21.47-8.57 53.25-21.47 62.7-19.76 14.6-52.39 21.47-99.64 21.47h-60.99c-25.75 0-24.9-0.85-24.9-29.19v-382.25"></path><path d="m6382.4 945.99c-41.23 0-42.94-1.726-42.94-27.488v-121.12c0-90.188 4.29-102.21 52.39-107.37l24.91-2.571c5.16-3.441 3.43-18.902-1.71-21.492-46.4 1.742-75.59 2.59-109.09 2.59-36.95 0-66.14-1.719-99.64-2.59-5.14 2.59-6.88 16.332-1.71 21.492l14.6 2.571c48.1 8.597 49.8 17.179 49.8 107.37v309.23c0 90.2-5.99 104.79-50.66 108.23l-22.34 1.72c-5.14 3.43-3.44 18.89 1.73 21.48 42.08-0.87 71.27-2.59 108.22-2.59 33.5 0 62.69 0.86 99.63 2.59 5.17-2.59 6.88-18.05 1.74-21.48l-16.33-1.72c-49.83-5.15-51.54-18.03-51.54-108.23v-98.77c0-26.641 1.71-27.488 42.94-27.488h245.67c41.23 0 42.94 0.847 42.94 27.488v98.77c0 90.2-1.71 103.08-52.39 108.23l-16.33 1.72c-5.14 3.43-3.43 18.89 1.73 21.48 39.5-1.73 68.72-2.59 103.93-2.59 33.51 0 62.7 0.86 101.37 2.59 5.14-2.59 6.87-18.05 1.71-21.48l-18.04-1.72c-49.83-5.15-51.53-18.03-51.53-108.23v-309.23c0-90.188 1.7-101.35 51.53-107.37l20.62-2.571c5.14-3.441 3.44-18.902-1.73-21.492-41.23 1.742-70.42 2.59-103.93 2.59-35.21 0-66.13-0.848-103.93-2.59-5.16 2.59-6.87 16.332-1.73 21.492l16.33 2.571c52.39 6.867 50.68 17.179 52.39 107.37v121.12c0 25.762-1.71 27.488-42.94 27.488h-245.67"></path><path d="m1783.4 219.56c23.61-44.887 48.31-90.938 74.1-138.17 3.34 6.3711 8.19 15.488 14.58 27.398 6.34 11.883 13.71 25.52 22.09 40.941 8.36 15.399 17.33 32.059 26.89 49.989 9.53 17.922 19.26 36.082 29.13 54.5 9.87 18.422 19.68 36.511 29.38 54.269 9.73 17.75 18.76 34.332 27.14 49.742h6.53c3.68-32.148 7.13-63.23 10.29-93.199 3.2-29.98 6.45-59.449 9.82-88.422 3.33-28.98 6.7-57.617 10.03-85.91 3.37-28.309 7.04-56.359 11.05-84.16-4.01 0.67188-7.94 1.0117-11.8 1.0117h-11.81-11.8c-3.84 0-7.79-0.33984-11.8-1.0117-3.7 44.551-7.38 87.75-11.05 129.62-3.7 41.879-8.21 84.578-13.57 128.12h-1.01c-23.1-42.199-45.81-84.16-68.07-125.86-22.29-41.692-43.46-85.332-63.56-130.87h-4.51c-20.11 42.211-41.13 84.481-63.06 126.86-21.95 42.36-43.96 85.649-66.08 129.87h-1.01c-2.33-20.781-4.93-43.293-7.76-67.57-2.86-24.301-5.47-48.242-7.8-71.852-2.35-23.621-4.34-45.89-6.03-66.82-1.68-20.938-2.52-38.098-2.52-51.5-5.35 0.67188-11.21 1.0117-17.58 1.0117-6.36 0-12.22-0.33984-17.58-1.0117 4.35 27.141 8.86 55.781 13.57 85.91 4.68 30.141 9.2 60.473 13.57 90.942 4.35 30.48 8.36 60.55 12.06 90.179 3.67 29.649 6.84 57.852 9.53 84.66h8.55c23.1-47.57 46.46-93.789 70.09-138.67"></path><path d="m2182.5 162.8c8.69 0 17.74-0.18 27.11-0.512 9.39-0.328 18.42-0.5 27.14-0.5 9.36 0 18.75 0.07 28.14 0.25 9.37 0.172 18.73 0.41 28.12 0.762l-55.76 127.61zm222.55-156.26c-4.68 0.67188-9.11 1.0117-13.32 1.0117h-13.32-13.29c-4.2 0-8.63-0.33984-13.31-1.0117-2.36 7.7109-5.53 17-9.56 27.883-4.01 10.887-8.47 22.27-13.32 34.18-4.85 11.867-9.79 23.938-14.8 36.16-5.02 12.226-9.73 23.859-14.08 34.918-10.74 0.32-21.61 0.582-32.66 0.761-11.05 0.149-22.09 0.25-33.17 0.25-10.37 0-20.58-0.101-30.64-0.25-10.04-0.179-20.27-0.441-30.64-0.761-10.71-26.129-20.44-51-29.13-74.602-8.72-23.617-15.26-43.137-19.6-58.539-5.69 0.67188-11.89 1.0117-18.59 1.0117s-12.9-0.33984-18.59-1.0117c27.14 58.609 53.58 116.9 79.37 174.85 25.8 57.929 51.76 116.88 77.89 176.84h9.53c8.05-19.429 16.77-40.449 26.13-63.058 9.36-22.602 18.92-45.461 28.65-68.582 9.7-23.102 19.4-46.039 29.13-68.82 9.7-22.782 18.84-43.969 27.39-63.559 8.53-19.59 16.24-37.09 23.11-52.5 6.87-15.41 12.47-27.129 16.82-35.172"></path><path d="m2622.6 136.92c-43.54 46.719-87.08 93.187-130.62 139.41-0.34-9.379-0.67-21.937-1.01-37.68-0.33-15.738-0.48-37.179-0.48-64.296 0-7.043 0.06-15.743 0.23-26.133 0.17-10.391 0.34-21.27 0.5-32.649 0.17-11.398 0.42-22.949 0.76-34.672 0.34-11.726 0.67-22.609 1.01-32.66 0.34-10.047 0.67-18.84 1.01-26.379 0.34-7.5274 0.67-12.641 1.01-15.32-5.36 0.67188-11.24 1.0117-17.58 1.0117-6.73 0-12.9-0.33984-18.59-1.0117 0.65 3.3516 1.4 9.5429 2.24 18.59 0.85 9.0508 1.6 19.852 2.28 32.41 0.67 12.562 1.43 26.199 2.24 40.941 0.84 14.738 1.51 29.468 2.02 44.218 0.5 14.731 0.92 29.141 1.26 43.199 0.34 14.071 0.5 26.633 0.5 37.684 0 32.156-0.08 59.789-0.25 82.898-0.17 23.11-0.59 40.36-1.26 51.75h8.05c20.41-22.109 42.27-45.8 65.54-71.089 23.3-25.289 46.41-50.243 69.34-74.86 22.96-24.609 44.72-47.902 65.32-69.84 20.61-21.929 38.61-40.609 54-56.011v68.32c0 35.172-0.25 69.422-0.76 102.74-0.47 33.344-1.57 64.742-3.25 94.203 6.7-1.671 12.39-2.511 17.08-2.511 4.03 0 9.39 0.84 16.09 2.511-0.67-7.359-1.43-18.421-2.27-33.152-0.84-14.75-1.68-30.488-2.52-47.23-0.82-16.75-1.57-33.149-2.25-49.227-0.67-16.082-1.01-28.973-1.01-38.691v-30.141c0-11.398 0.09-23.281 0.26-35.672 0.16-12.398 0.33-24.867 0.5-37.43 0.17-12.559 0.34-24.297 0.5-35.168 0.17-10.902 0.26-20.352 0.26-28.391v-16.59h-7.04c-38.52 44.551-79.57 90.199-123.11 136.92"></path><path d="m2899.5 162.8c8.69 0 17.75-0.18 27.11-0.512 9.39-0.328 18.42-0.5 27.14-0.5 9.37 0 18.76 0.07 28.15 0.25 9.36 0.172 18.73 0.41 28.12 0.762l-55.76 127.61zm222.55-156.26c-4.68 0.67188-9.11 1.0117-13.31 1.0117h-13.32-13.29c-4.21 0-8.64-0.33984-13.32-1.0117-2.35 7.7109-5.52 17-9.56 27.883-4.01 10.887-8.46 22.27-13.31 34.18-4.86 11.867-9.79 23.938-14.81 36.16-5.02 12.226-9.73 23.859-14.07 34.918-10.74 0.32-21.62 0.582-32.66 0.761-11.05 0.149-22.1 0.25-33.17 0.25-10.37 0-20.58-0.101-30.65-0.25-10.03-0.179-20.27-0.441-30.64-0.761-10.71-26.129-20.44-51-29.13-74.602-8.72-23.617-15.25-43.137-19.6-58.539-5.69 0.67188-11.88 1.0117-18.58 1.0117s-12.9-0.33984-18.59-1.0117c27.14 58.609 53.58 116.9 79.37 174.85 25.79 57.929 51.75 116.88 77.88 176.84h9.54c8.04-19.429 16.76-40.449 26.13-63.058 9.36-22.602 18.92-45.461 28.65-68.582 9.7-23.102 19.4-46.039 29.13-68.82 9.7-22.782 18.84-43.969 27.39-63.559 8.52-19.59 16.23-37.09 23.1-52.5 6.87-15.41 12.48-27.129 16.82-35.172"></path><path d="m3458.9 308.49c-7.54 6.032-15.93 11.313-25.12 15.832-9.23 4.52-19.43 8.2-30.67 11.059-11.22 2.832-23.19 4.262-35.92 4.262-20.77 0-40.12-3.18-58.03-9.551-17.92-6.36-33.48-16.16-46.71-29.379-13.23-13.25-23.61-29.992-31.15-50.242-7.54-20.27-11.3-44.297-11.3-72.098 0-24.461 3.34-46.57 10.04-66.32 6.7-19.762 16.48-36.43 29.38-49.992 12.9-13.57 28.65-24.039 47.24-31.398 18.59-7.3711 39.59-11.059 63.06-11.059 7.03 0 14.38 0.3398 22.09 1.0078 7.71 0.6601 15.17 1.6719 22.37 3.0195 7.18 1.332 13.88 3.0117 20.08 5.0117 6.19 2.0196 11.49 4.3594 15.84 7.0391 0.33 10.051 0.58 20.102 0.75 30.141 0.17 10.051 0.25 20.27 0.25 30.66 0 11.718-0.25 23.442-0.75 35.16-0.51 11.73-1.1 22.941-1.77 33.668 8.38-1.68 16.4-2.508 24.11-2.508 3.7 0 7.38 0.148 11.08 0.488 3.67 0.34 7.17 1.012 10.54 2.02-0.67-7.707-1.18-19.848-1.52-36.438-0.33-16.57-0.5-38.422-0.5-65.562 0-6.6992 0.08-13.477 0.25-20.34 0.17-6.8672 0.25-13.648 0.25-20.348-7.03-2.6797-15.81-5.4414-26.38-8.2891-10.54-2.8398-21.75-5.2031-33.64-7.0429-11.89-1.8281-23.8-3.5078-35.69-5.0078-11.89-1.5195-22.68-2.2812-32.38-2.2812-29.83 0-56.72 3.6094-80.66 10.809-23.95 7.1914-44.3 18.34-61.04 33.41-16.74 15.082-29.63 33.82-38.69 56.269-9.03 22.442-13.57 48.403-13.57 77.883 0 28.461 4.71 53.828 14.08 76.109 9.39 22.27 22.62 41.11 39.7 56.52 17.07 15.398 37.76 27.141 62.04 35.172 24.28 8.047 51.17 12.058 80.63 12.058 17.08 0 32.24-0.929 45.48-2.769 13.23-1.832 24.95-4.262 35.15-7.27 10.24-3.031 19.18-6.211 26.89-9.55 7.71-3.36 14.58-6.532 20.61-9.539-2.69-4.704-5.13-10.731-7.29-18.102-2.19-7.359-3.62-14.23-4.26-20.59h-6.03c-5.05 6.02-11.33 12.051-18.84 18.078"></path><path d="m3589.5 287.39c-0.84 21.437-1.77 42.871-2.78 64.3 15.09-0.671 30.06-1.242 44.98-1.75 14.88-0.5 29.88-0.761 44.97-0.761 15.05 0 29.97 0.261 44.71 0.761 14.72 0.508 29.64 1.079 44.69 1.75-0.98-5.019-1.48-10.031-1.48-15.07 0-5.012 0.5-10.051 1.48-15.07-10.71 0.679-20.49 1.34-29.38 2.008-8.89 0.671-18.25 1.339-28.12 2.023-9.9 0.656-20.69 1.238-32.41 1.75-11.75 0.496-25.79 0.758-42.19 0.758-0.37-10.731-0.76-20.949-1.27-30.649-0.5-9.73-0.75-20.769-0.75-33.16 0-13.07 0.08-25.801 0.25-38.191 0.17-12.391 0.25-21.77 0.25-28.129 14.72 0 27.95 0.16 39.67 0.5s22.46 0.758 32.16 1.258c9.73 0.511 18.67 1 26.89 1.5 8.21 0.511 15.98 1.101 23.35 1.769-1.01-5.027-1.48-10.218-1.48-15.578 0-5.031 0.47-10.051 1.48-15.07-8.69 1-18.84 1.84-30.39 2.512-11.55 0.66-23.1 1.078-34.65 1.25-11.55 0.168-22.46 0.339-32.66 0.507-10.24 0.161-18.34 0.25-24.37 0.25 0-3.019-0.08-6.277-0.25-9.8-0.17-3.52-0.25-7.957-0.25-13.321v-49.726c0-19.102 0.08-34.84 0.25-47.231 0.17-12.391 0.42-21.77 0.76-28.141h35.15c12.73 0 25.21 0.2578 37.43 0.7578 12.23 0.5118 23.78 1.1602 34.68 2.0118 10.88 0.8398 20.33 2.0781 28.38 3.7695-0.68-2.3399-1.1-4.9492-1.26-7.7813-0.17-2.8593-0.26-5.457-0.26-7.7968 0-5.3516 0.51-9.711 1.52-13.063-15.09 0.67188-30.06 1.0117-44.97 1.0117h-45.48-45.7c-15.08 0-30.33-0.33984-45.73-1.0117 1.01 21.43 1.94 42.781 2.78 64.063 0.81 21.27 1.23 42.949 1.23 65.058v86.422c0 22.109-0.42 43.879-1.23 65.309"></path><path d="m3954.2 219.56c23.6-44.887 48.3-90.938 74.1-138.17 3.36 6.3711 8.21 15.488 14.57 27.398 6.37 11.883 13.74 25.52 22.1 40.941 8.38 15.399 17.35 32.059 26.88 49.989 9.56 17.922 19.26 36.082 29.16 54.5 9.87 18.422 19.66 36.511 29.38 54.269 9.7 17.75 18.76 34.332 27.14 49.742h6.54c3.67-32.148 7.09-63.23 10.28-93.199 3.17-29.98 6.45-59.449 9.79-88.422 3.36-28.98 6.7-57.617 10.06-85.91 3.34-28.309 7.04-56.359 11.05-84.16-4.01 0.67188-7.96 1.0117-11.8 1.0117h-11.81-11.8c-3.87 0-7.79-0.33984-11.83-1.0117-3.67 44.551-7.35 87.75-11.05 129.62-3.67 41.879-8.21 84.578-13.57 128.12h-0.98c-23.13-42.199-45.81-84.16-68.1-125.86-22.26-41.692-43.45-85.332-63.53-130.87h-4.54c-20.1 42.211-41.1 84.481-63.05 126.86-21.93 42.36-43.96 85.649-66.06 129.87h-1.01c-2.35-20.781-4.93-43.293-7.79-67.57-2.83-24.301-5.44-48.242-7.79-71.852-2.33-23.621-4.35-45.89-6.03-66.82-1.68-20.938-2.5-38.098-2.5-51.5-5.35 0.67188-11.24 1.0117-17.58 1.0117-6.36 0-12.25-0.33984-17.6-1.0117 4.37 27.141 8.88 55.781 13.57 85.91 4.68 30.141 9.22 60.473 13.57 90.942 4.34 30.48 8.38 60.55 12.05 90.179 3.67 29.649 6.87 57.852 9.56 84.66h8.52c23.13-47.57 46.49-93.789 70.1-138.67"></path><path d="m4297.4 287.39c-0.84 21.437-1.76 42.871-2.74 64.3 15.05-0.671 30.05-1.242 44.94-1.75 14.91-0.5 29.91-0.761 44.97-0.761 15.08 0 29.97 0.261 44.72 0.761 14.74 0.508 29.63 1.079 44.71 1.75-1.01-5.019-1.51-10.031-1.51-15.07 0-5.012 0.5-10.051 1.51-15.07-10.71 0.679-20.52 1.34-29.38 2.008-8.89 0.671-18.28 1.339-28.15 2.023-9.87 0.656-20.69 1.238-32.41 1.75-11.72 0.496-25.79 0.758-42.19 0.758-0.34-10.731-0.76-20.949-1.26-30.649-0.51-9.73-0.76-20.769-0.76-33.16 0-13.07 0.08-25.801 0.25-38.191 0.17-12.391 0.25-21.77 0.25-28.129 14.75 0 27.98 0.16 39.7 0.5s22.43 0.758 32.16 1.258c9.7 0.511 18.67 1 26.89 1.5 8.19 0.511 15.98 1.101 23.35 1.769-1.01-5.027-1.51-10.218-1.51-15.578 0-5.031 0.5-10.051 1.51-15.07-8.72 1-18.84 1.84-30.39 2.512-11.55 0.66-23.13 1.078-34.68 1.25-11.55 0.168-22.43 0.339-32.66 0.507-10.21 0.161-18.34 0.25-24.37 0.25 0-3.019-0.08-6.277-0.25-9.8-0.17-3.52-0.25-7.957-0.25-13.321v-49.726c0-19.102 0.08-34.84 0.25-47.231 0.17-12.391 0.42-21.77 0.76-28.141h35.18c12.7 0 25.18 0.2578 37.43 0.7578 12.23 0.5118 23.78 1.1602 34.66 2.0118 10.87 0.8398 20.35 2.0781 28.4 3.7695-0.68-2.3399-1.1-4.9492-1.26-7.7813-0.17-2.8593-0.26-5.457-0.26-7.7968 0-5.3516 0.51-9.711 1.52-13.063-15.09 0.67188-30.09 1.0117-44.97 1.0117h-45.48-45.73c-15.05 0-30.3-0.33984-45.69-1.0117 0.98 21.43 1.9 42.781 2.74 64.063 0.84 21.27 1.26 42.949 1.26 65.058v86.422c0 22.109-0.42 43.879-1.26 65.309"></path><path d="m4709.6 136.92c-43.54 46.719-87.08 93.187-130.62 139.41-0.34-9.379-0.67-21.937-1.01-37.68-0.34-15.738-0.48-37.179-0.48-64.296 0-7.043 0.06-15.743 0.23-26.133 0.17-10.391 0.33-21.27 0.5-32.649 0.17-11.398 0.42-22.949 0.76-34.672 0.34-11.726 0.67-22.609 1.01-32.66 0.34-10.047 0.67-18.84 1.01-26.379 0.33-7.5274 0.67-12.641 1.01-15.32-5.36 0.67188-11.24 1.0117-17.58 1.0117-6.73 0-12.9-0.33984-18.59-1.0117 0.65 3.3516 1.4 9.5429 2.24 18.59 0.84 9.0508 1.6 19.852 2.27 32.41 0.68 12.562 1.43 26.199 2.25 40.941 0.84 14.738 1.51 29.468 2.02 44.218 0.5 14.731 0.92 29.141 1.26 43.199 0.33 14.071 0.5 26.633 0.5 37.684 0 32.156-0.08 59.789-0.25 82.898-0.17 23.11-0.59 40.36-1.26 51.75h8.05c20.41-22.109 42.27-45.8 65.54-71.089 23.3-25.289 46.4-50.243 69.34-74.86 22.96-24.609 44.72-47.902 65.32-69.84 20.61-21.929 38.61-40.609 54-56.011v68.32c0 35.172-0.25 69.422-0.76 102.74-0.47 33.344-1.57 64.742-3.25 94.203 6.7-1.671 12.39-2.511 17.08-2.511 4.03 0 9.39 0.84 16.09 2.511-0.67-7.359-1.43-18.421-2.27-33.152-0.84-14.75-1.68-30.488-2.53-47.23-0.81-16.75-1.57-33.149-2.24-49.227-0.67-16.082-1.01-28.973-1.01-38.691v-30.141c0-11.398 0.09-23.281 0.25-35.672 0.17-12.398 0.34-24.867 0.51-37.43 0.17-12.559 0.34-24.297 0.5-35.168 0.17-10.902 0.26-20.352 0.26-28.391v-16.59h-7.04c-38.52 44.551-79.57 90.199-123.11 136.92"></path><path d="m5009.1 325.58c-8.72 0-17.86-0.094-27.39-0.262-9.56-0.179-19.1-0.5-28.66-1-9.53-0.511-18.75-1.101-27.61-1.761-8.89-0.668-16.82-1.508-23.86-2.52 1.65 6.043 2.49 11.383 2.49 16.082 0 3.688-0.84 8.867-2.49 15.57 22.09-0.671 43.71-1.242 64.79-1.75 21.11-0.5 42.73-0.761 64.82-0.761s43.71 0.261 64.82 0.761c21.08 0.508 42.7 1.079 64.79 1.75-1.68-6.703-2.49-12.05-2.49-16.062 0-4.359 0.81-9.547 2.49-15.59-7.04 1.012-14.97 1.852-23.86 2.52-8.88 0.66-18.08 1.25-27.61 1.761-9.56 0.5-19.1 0.821-28.66 1-9.53 0.168-18.67 0.262-27.39 0.262-0.98-34.5-1.48-69.172-1.48-104v-86.43c0-22.097 0.42-43.867 1.26-65.308 0.81-21.43 1.74-42.531 2.75-63.301-7.71 0.67188-15.9 1.0117-24.62 1.0117s-16.91-0.33984-24.62-1.0117c1.01 20.77 1.94 41.871 2.75 63.301 0.84 21.442 1.26 43.211 1.26 65.308v86.43c0 34.832-0.5 69.504-1.48 104"></path></g></g></g></svg>