<svg xmlns="http://www.w3.org/2000/svg" id="Layer_1" data-name="Layer 1" width="50.02" height="50.03" viewBox="0 0 50.02 50.03"><defs><style>.cls-1{opacity:0.75;}.cls-2{fill:#b7cd63;}</style></defs><g class="cls-1"><path class="cls-2" d="M566.09,270.07a2.49,2.49,0,0,1-1.79-.74,2.52,2.52,0,0,1,0-3.57l18.48-18.48a2.57,2.57,0,0,1,3.57,0,2.52,2.52,0,0,1,0,3.57l-18.48,18.48A2.48,2.48,0,0,1,566.09,270.07Zm18.47-21.85a.83.83,0,0,0-.59.25L565.49,267a.84.84,0,0,0,0,1.19.86.86,0,0,0,1.19,0l18.48-18.48a.85.85,0,0,0-.6-1.44Z" transform="translate(-563.56 -246.56)"></path><path class="cls-2" d="M582.84,271.49a2.13,2.13,0,0,1-1.52-.63l-2.12-2.12,6.56-6.56,2.12,2.12a2.13,2.13,0,0,1,.63,1.52,2.09,2.09,0,0,1-.63,1.51l-3.53,3.53A2.09,2.09,0,0,1,582.84,271.49Zm-1.26-2.75.94.93a.47.47,0,0,0,.64,0l3.53-3.53a.44.44,0,0,0,.13-.32.42.42,0,0,0-.13-.32l-.93-.94Z" transform="translate(-563.56 -246.56)"></path><path class="cls-2" d="M573.37,271.44h0a7.14,7.14,0,0,1-6.13-2.84l-.44-.58L585,249.78l.58.44a7.52,7.52,0,0,1,.73.63c3.62,3.62,2.42,10.71-2.68,15.8C580.67,269.65,576.82,271.44,573.37,271.44Zm-4.3-3.3h0a5.92,5.92,0,0,0,4.3,1.61c3,0,6.42-1.6,9.11-4.29,4.44-4.44,5.64-10.46,2.68-13.41Z" transform="translate(-563.56 -246.56)"></path><path class="cls-2" d="M575.43,296.6a9.93,9.93,0,0,1-3.88-.81.84.84,0,0,1-.5-.61.82.82,0,0,1,.23-.76l4.77-4.77-3.35-3.34L568,291a.82.82,0,0,1-.76.23.8.8,0,0,1-.61-.5,8.86,8.86,0,0,1,1.69-10,9.38,9.38,0,0,1,9.77-2.21l17.47-17.47a9.21,9.21,0,0,1,2.15-9.71,8.37,8.37,0,0,1,6-2.52,10.26,10.26,0,0,1,4,.83A.84.84,0,0,1,608,251l-4.62,4.62L606.7,259l4.7-4.69a.82.82,0,0,1,.76-.23.84.84,0,0,1,.61.5A8.91,8.91,0,0,1,611,264.63a9.16,9.16,0,0,1-6.52,2.72h0a9.65,9.65,0,0,1-3.19-.56l-17.47,17.46a9.35,9.35,0,0,1-2.21,9.77A8.55,8.55,0,0,1,575.43,296.6Zm-2-2a7.16,7.16,0,0,0,7-1.82,7.68,7.68,0,0,0,1.64-8.46.85.85,0,0,1,.18-.92l18.25-18.25a.87.87,0,0,1,.93-.18,7.53,7.53,0,0,0,3.06.64h0a7.49,7.49,0,0,0,5.33-2.22,7.13,7.13,0,0,0,1.82-7l-4.33,4.33a.86.86,0,0,1-1.19,0l-4.54-4.53a.84.84,0,0,1,0-1.2l4.26-4.25a7,7,0,0,0-6.92,1.74,7.55,7.55,0,0,0-1.58,8.39.83.83,0,0,1-.18.93L578.9,280.11a.85.85,0,0,1-.92.18,7.73,7.73,0,0,0-8.46,1.64,7,7,0,0,0-1.75,6.92l4.34-4.33a.86.86,0,0,1,1.19,0l4.53,4.53a.84.84,0,0,1,.25.6.82.82,0,0,1-.25.59Z" transform="translate(-563.56 -246.56)"></path><path class="cls-2" d="M609.43,295.36a2.89,2.89,0,0,1-2.08-.86l-18.08-18.08,4.17-4.17,18.08,18.08a2.89,2.89,0,0,1,.86,2.08,2.94,2.94,0,0,1-3,2.95Zm-17.77-18.94,16.88,16.89a1.31,1.31,0,0,0,1.79,0,1.26,1.26,0,0,0,.37-.9,1.24,1.24,0,0,0-.37-.89l-16.89-16.88Z" transform="translate(-563.56 -246.56)"></path></g></svg>