<svg xmlns="http://www.w3.org/2000/svg" xmlns:xlink="http://www.w3.org/1999/xlink" id="Layer_1" x="0px" y="0px" viewBox="0 0 28.8 23.9" style="enable-background:new 0 0 28.8 23.9;" xml:space="preserve">
<style type="text/css">
	.st0{clip-path:url(#SVGID_2_);}
	.st1{opacity:0.75;clip-path:url(#SVGID_4_);}
	.st2{clip-path:url(#SVGID_6_);}
	.st3{clip-path:url(#SVGID_8_);fill:#B7CE63;}
</style>
<g>
	<defs>
		<rect id="SVGID_1_" x="0.5" y="1.8" width="27.8" height="20.1"></rect>
	</defs>
	<clipPath id="SVGID_2_">
		<use xlink:href="#SVGID_1_" style="overflow:visible;"></use>
	</clipPath>
	<g class="st0">
		<defs>
			<rect id="SVGID_3_" x="0.5" y="1.8" width="27.8" height="20.1"></rect>
		</defs>
		<clipPath id="SVGID_4_">
			<use xlink:href="#SVGID_3_" style="overflow:visible;"></use>
		</clipPath>
		<g class="st1">
			<g>
				<defs>
					<rect id="SVGID_5_" x="-8.5" y="-5.2" width="45.8" height="28.1"></rect>
				</defs>
				<clipPath id="SVGID_6_">
					<use xlink:href="#SVGID_5_" style="overflow:visible;"></use>
				</clipPath>
				<g class="st2">
					<defs>
						<rect id="SVGID_7_" x="0.5" y="1.8" width="27.8" height="20.1"></rect>
					</defs>
					<clipPath id="SVGID_8_">
						<use xlink:href="#SVGID_7_" style="overflow:visible;"></use>
					</clipPath>
					<path class="st3" d="M12.2,22c-0.4,0-1-0.1-1.6-0.8l-8.8-8.3c-0.5-0.5-1.4-1.7-0.4-2.9l3-3c0.1-0.1,0.4-0.4,1-0.4       c0.4,0,1,0.1,1.6,0.9l4,4c0,0,0.6,0.7,1.3,0.7c0.4,0,0.8-0.2,1.1-0.7L22,2.4c0.1-0.1,0.6-0.5,1.3-0.5c0.5,0,1,0.2,1.4,0.6       l2.9,2.9c0.1,0.1,0.6,0.5,0.6,1.2c0,0.6-0.3,1.1-0.8,1.7L14,21.2C13.9,21.2,13.2,22,12.2,22 M5.1,7.8l-2.9,2.9       c-0.6,0.7,0.3,1.5,0.4,1.5l8.8,8.3c0.3,0.3,0.6,0.5,0.9,0.5c0.5,0,1-0.4,1.1-0.5l13.5-13c0.3-0.2,0.6-0.6,0.5-0.9       c0-0.3-0.2-0.5-0.2-0.5l0,0l-2.9-2.9c-0.3-0.2-0.5-0.3-0.8-0.3c-0.4,0-0.6,0.2-0.6,0.2l-8.5,9.1c-0.5,0.7-1.2,1-1.9,1       c-1.1,0-2-1-2-1l-4-4C6,7.9,5.7,7.7,5.4,7.7C5.2,7.7,5.1,7.7,5.1,7.8"></path>
				</g>
			</g>
		</g>
	</g>
</g>
</svg>