<svg xmlns="http://www.w3.org/2000/svg" xmlns:xlink="http://www.w3.org/1999/xlink" id="Layer_1" data-name="Layer 1" viewBox="0 0 22.46 22.46"><defs><style>.cls-1,.cls-8{fill:none;}.cls-2{clip-path:url(#clip-path);}.cls-3{clip-path:url(#clip-path-2);}.cls-4{opacity:0.75;}.cls-5{clip-path:url(#clip-path-3);}.cls-6{clip-path:url(#clip-path-4);}.cls-7{fill:#b7ce63;}.cls-8{stroke:#b7ce63;stroke-miterlimit:10;stroke-width:0.37px;}</style><clipPath id="clip-path" transform="translate(-3.12 -0.58)"><rect class="cls-1" x="0.97" y="-1.57" width="26.76" height="27.77"></rect></clipPath><clipPath id="clip-path-2" transform="translate(-3.12 -0.58)"><rect class="cls-1" x="0.97" y="-1.57" width="26.76" height="27.77"></rect></clipPath><clipPath id="clip-path-3" transform="translate(-3.12 -0.58)"><rect class="cls-1" x="-8.03" y="-8.57" width="44.76" height="35.77"></rect></clipPath><clipPath id="clip-path-4" transform="translate(-3.12 -0.58)"><rect class="cls-1" x="0.97" y="-1.57" width="26.76" height="26.76"></rect></clipPath></defs><title>bus_moneymarket_icon</title><g class="cls-2"><g class="cls-3"><g class="cls-4"><g class="cls-5"><g class="cls-6"><path class="cls-7" d="M15.06,10.9V6.83a2.31,2.31,0,0,1,1.17.4A4.13,4.13,0,0,1,17.29,8.3L18,7.91a3.57,3.57,0,0,0-1.2-1.29,3.83,3.83,0,0,0-1.72-.52V4.93h-.67V6.08A4.09,4.09,0,0,0,12.05,7a2.36,2.36,0,0,0-.83,1.87A2.26,2.26,0,0,0,12,10.58a5.53,5.53,0,0,0,2.42,1.07v4.58a3.6,3.6,0,0,1-1.53-.58,4,4,0,0,1-1.13-1.31l-.66.59a4.28,4.28,0,0,0,1.41,1.48,4.11,4.11,0,0,0,1.91.56v1.34h.67V17a4.13,4.13,0,0,0,2.49-.91,2.66,2.66,0,0,0,.89-2.1,2.44,2.44,0,0,0-.83-1.87,5.94,5.94,0,0,0-2.55-1.19m-.67-.18A4.32,4.32,0,0,1,12.62,10a1.54,1.54,0,0,1-.56-1.22,1.67,1.67,0,0,1,.63-1.36,2.75,2.75,0,0,1,1.7-.57Zm2.51,4.85a3.22,3.22,0,0,1-1.84.68V11.9a5,5,0,0,1,1.93.89,1.68,1.68,0,0,1,.57,1.31,1.87,1.87,0,0,1-.66,1.47M14.35.76a11,11,0,1,0,11,11.05,11.06,11.06,0,0,0-11-11m0,21.21A10.16,10.16,0,1,1,24.52,11.81,10.17,10.17,0,0,1,14.35,22" transform="translate(-3.12 -0.58)"></path><path class="cls-8" d="M15.06,10.9V6.83a2.31,2.31,0,0,1,1.17.4A4.13,4.13,0,0,1,17.29,8.3L18,7.91a3.57,3.57,0,0,0-1.2-1.29,3.83,3.83,0,0,0-1.72-.52V4.93h-.67V6.08A4.09,4.09,0,0,0,12.05,7a2.36,2.36,0,0,0-.83,1.87A2.26,2.26,0,0,0,12,10.58a5.53,5.53,0,0,0,2.42,1.07v4.58a3.6,3.6,0,0,1-1.53-.58,4,4,0,0,1-1.13-1.31l-.66.59a4.28,4.28,0,0,0,1.41,1.48,4.11,4.11,0,0,0,1.91.56v1.34h.67V17a4.13,4.13,0,0,0,2.49-.91,2.66,2.66,0,0,0,.89-2.1,2.44,2.44,0,0,0-.83-1.87A5.94,5.94,0,0,0,15.06,10.9Zm-.67-.18A4.32,4.32,0,0,1,12.62,10a1.54,1.54,0,0,1-.56-1.22,1.67,1.67,0,0,1,.63-1.36,2.75,2.75,0,0,1,1.7-.57Zm2.51,4.85a3.22,3.22,0,0,1-1.84.68V11.9a5,5,0,0,1,1.93.89,1.68,1.68,0,0,1,.57,1.31A1.87,1.87,0,0,1,16.9,15.57ZM14.35.76a11,11,0,1,0,11,11.05A11.06,11.06,0,0,0,14.35.76Zm0,21.21A10.16,10.16,0,1,1,24.52,11.81,10.17,10.17,0,0,1,14.35,22Z" transform="translate(-3.12 -0.58)"></path></g></g></g></g></g></svg>