<svg xmlns="http://www.w3.org/2000/svg" xmlns:xlink="http://www.w3.org/1999/xlink" id="Layer_1" data-name="Layer 1" viewBox="0 0 28.88 25.29"><defs><style>.cls-1{fill:none;}.cls-2{clip-path:url(#clip-path);}.cls-3{clip-path:url(#clip-path-2);}.cls-4{opacity:0.75;}.cls-5{clip-path:url(#clip-path-3);}.cls-6{clip-path:url(#clip-path-4);}.cls-7{fill:#b7ce63;}</style><clipPath id="clip-path" transform="translate(-0.26 -1.05)"><rect class="cls-1" x="-2.41" y="-2.24" width="32.1" height="32.11"></rect></clipPath><clipPath id="clip-path-2" transform="translate(-0.26 -1.05)"><rect class="cls-1" x="-2.41" y="-2.24" width="32.1" height="32.1"></rect></clipPath><clipPath id="clip-path-3" transform="translate(-0.26 -1.05)"><rect class="cls-1" x="-11.38" y="-11.21" width="51.5" height="44.22"></rect></clipPath><clipPath id="clip-path-4" transform="translate(-0.26 -1.05)"><rect class="cls-1" x="0.41" y="0.57" width="26.47" height="26.48" transform="translate(-3.05 23.71) rotate(-76)"></rect></clipPath></defs><title>bus_purchcard_icon</title><g class="cls-2"><g class="cls-3"><g class="cls-4"><g class="cls-5"><g class="cls-6"><path class="cls-7" d="M8.75,26.23a3.68,3.68,0,0,1-2.28-1.69L.8,15.1A3.71,3.71,0,0,1,2.06,10l14.81-8.9a.51.51,0,0,1,.4-.05l11.5,3.24a.51.51,0,0,1,.36.6L26.59,16.58a.49.49,0,0,1-.23.33l-14.81,8.9a3.67,3.67,0,0,1-2.8.42M17.21,2.12,2.59,10.9a2.68,2.68,0,0,0-.92,3.68L7.34,24A2.72,2.72,0,0,0,9,25.24a2.67,2.67,0,0,0,2-.31l14.62-8.78L28,5.16Z" transform="translate(-0.26 -1.05)"></path><path class="cls-7" d="M22.84,9.91a2,2,0,0,1-.54-3.58A2,2,0,0,1,25,7a2,2,0,0,1-2.15,2.91m.76-3a1.15,1.15,0,0,0-.89.13,1.17,1.17,0,0,0-.41,1.61,1.2,1.2,0,0,0,1.62.4,1.18,1.18,0,0,0,.4-1.61,1.14,1.14,0,0,0-.72-.53" transform="translate(-0.26 -1.05)"></path><path class="cls-7" d="M8.54,16.79l1.22-.73a4.17,4.17,0,0,1-.58-2.17l1-.19a3.71,3.71,0,0,0,.52,2.05,1.48,1.48,0,0,0,2,.72c.67-.4.8-1.11.62-2.22-.26-1.52-.16-2.62.89-3.25a2.32,2.32,0,0,1,3,.66l1.22-.73.44.74-1.17.71a3.66,3.66,0,0,1,.52,1.82l-1,.17a3.43,3.43,0,0,0-.5-1.76c-.56-.93-1.33-.95-1.81-.66s-.67,1-.48,2.32c.24,1.55,0,2.55-1.08,3.2a2.47,2.47,0,0,1-3.2-.67L9,17.55Z" transform="translate(-0.26 -1.05)"></path></g></g></g></g></g></svg>