<svg xmlns="http://www.w3.org/2000/svg" xmlns:xlink="http://www.w3.org/1999/xlink" id="Layer_1" data-name="Layer 1" viewBox="0 0 22.76 24.62"><defs><style>.cls-1{fill:none;}.cls-2{clip-path:url(#clip-path);}.cls-3{opacity:0.75;}.cls-4{clip-path:url(#clip-path-3);}.cls-5{clip-path:url(#clip-path-4);}.cls-6{fill:#b7ce63;}</style><clipPath id="clip-path" transform="translate(-3.06 -0.7)"><rect class="cls-1" x="-2.54" y="-2.1" width="31.5" height="28"></rect></clipPath><clipPath id="clip-path-3" transform="translate(-3.06 -0.7)"><rect class="cls-1" x="-11.54" y="-9.1" width="49.5" height="36"></rect></clipPath><clipPath id="clip-path-4" transform="translate(-3.06 -0.7)"><rect class="cls-1" x="3.06" y="0.7" width="22.76" height="24.66"></rect></clipPath></defs><title>bus_CD_icon</title><g class="cls-2"><g class="cls-2"><g class="cls-3"><g class="cls-4"><g class="cls-5"><path class="cls-6" d="M3.06.7v20H15.55v4.19a.46.46,0,0,0,.32.44.48.48,0,0,0,.52-.17l1.95-2.73,1.94,2.73a.47.47,0,0,0,.38.19l.14,0a.46.46,0,0,0,.32-.44V20.67h4.7V.7ZM24.89,19.75H21.12V14.17h-.93v9.24l-1.48-2.08a.48.48,0,0,0-.75,0l-1.48,2.08V14.17h-.93v5.58H4V1.63h20.9Zm-6.55-6.51a4.18,4.18,0,1,0-4.18-4.18,4.18,4.18,0,0,0,4.18,4.18m0-7.43a3.25,3.25,0,1,1-3.26,3.25,3.26,3.26,0,0,1,3.26-3.25" transform="translate(-3.06 -0.7)"></path></g></g></g></g></g></svg>