<svg xmlns="http://www.w3.org/2000/svg" xmlns:xlink="http://www.w3.org/1999/xlink" id="Layer_1" data-name="Layer 1" viewBox="0 0 26.18 16.53"><defs><style>.cls-1{fill:none;}.cls-2{clip-path:url(#clip-path);}.cls-3{clip-path:url(#clip-path-2);}.cls-4{opacity:0.75;}.cls-5{clip-path:url(#clip-path-3);}.cls-6{fill:#b7ce63;}</style><clipPath id="clip-path" transform="translate(-0.44 -0.6)"><rect class="cls-1" x="0.44" y="0.6" width="26.19" height="16.53"></rect></clipPath><clipPath id="clip-path-2" transform="translate(-0.44 -0.6)"><rect class="cls-1" x="0.44" y="0.6" width="26.19" height="16.53"></rect></clipPath><clipPath id="clip-path-3" transform="translate(-0.44 -0.6)"><rect class="cls-1" x="-8.56" y="-6.4" width="44.19" height="24.53"></rect></clipPath></defs><title>get_started_icon</title><g class="cls-2"><g class="cls-3"><g class="cls-4"><g class="cls-5"><g class="cls-3"><path class="cls-6" d="M16.84,17.13h0a1.1,1.1,0,0,1-1.1-1.1V12.79a.09.09,0,0,0-.08-.08H1.54a1.1,1.1,0,0,1-1.1-1.1V6.16a1.1,1.1,0,0,1,1.1-1.1H15.66A.08.08,0,0,0,15.74,5V1.7A1.1,1.1,0,0,1,17.53.84l8.68,7a1.1,1.1,0,0,1,0,1.69l-8.69,7.39a1.09,1.09,0,0,1-.71.26m-15.3-11a.09.09,0,0,0-.08.08v5.45a.08.08,0,0,0,.08.08H15.66a1.1,1.1,0,0,1,1.1,1.1V16a.08.08,0,0,0,.08.08.06.06,0,0,0,.05,0l8.69-7.38a.08.08,0,0,0,0-.06.06.06,0,0,0,0-.06L16.89,1.64c-.05,0-.13,0-.13.06V5a1.1,1.1,0,0,1-1.1,1.1Z" transform="translate(-0.44 -0.6)"></path></g></g></g></g></g></svg>