<svg xmlns="http://www.w3.org/2000/svg" xmlns:xlink="http://www.w3.org/1999/xlink" id="Layer_1" data-name="Layer 1" viewBox="0 0 24.15 26.69"><defs><style>.cls-1{fill:none;}.cls-2{clip-path:url(#clip-path);}.cls-3{opacity:0.75;}.cls-4{clip-path:url(#clip-path-3);}.cls-5{fill:#b7ce63;}</style><clipPath id="clip-path" transform="translate(-1.63 -0.47)"><rect class="cls-1" x="1.63" y="0.47" width="24.15" height="26.69"></rect></clipPath><clipPath id="clip-path-3" transform="translate(-1.63 -0.47)"><rect class="cls-1" x="-7.37" y="-6.53" width="42.15" height="34.69"></rect></clipPath></defs><title>lenders_icon</title><g class="cls-2"><g class="cls-2"><g class="cls-3"><g class="cls-4"><g class="cls-2"><path class="cls-5" d="M22.57,9A7,7,0,0,0,23,6.57c0-3.36-2.32-6.1-5.17-6.1a5.28,5.28,0,0,0-4.88,4.08,5.18,5.18,0,0,0-1.84-.34C7.73,4.21,5,7.46,5,11.45s2.75,7.24,6.12,7.24a6,6,0,0,0,5.13-3.29,8.5,8.5,0,0,1,2.88,4,8.37,8.37,0,0,1,.42,2.63,8.76,8.76,0,0,1-1.11,4H3.72a8.81,8.81,0,0,1-1-4,8.41,8.41,0,0,1,1.45-4.74l-.86-.59a9.51,9.51,0,0,0-.38,10.07l.31.35H19l.36-.35a9.45,9.45,0,0,0,1.27-4.74,9.35,9.35,0,0,0-.3-2.35h4l.15-.25a8.63,8.63,0,0,0,1.35-4.12A8,8,0,0,0,22.57,9M17.82,1.52c2.27,0,4.12,2.27,4.12,5.05s-1.85,5-4.12,5a3.05,3.05,0,0,1-.6-.06v-.11A7.47,7.47,0,0,0,13.9,5a4.28,4.28,0,0,1,3.92-3.5M11.1,17.64C8.31,17.64,6,14.87,6,11.45S8.31,5.26,11.1,5.26,16.17,8,16.17,11.45s-2.27,6.19-5.07,6.19m12.57,1H19.94a9.5,9.5,0,0,0-3.26-4.25,8.82,8.82,0,0,0,.46-1.82,3.82,3.82,0,0,0,.68.06A5,5,0,0,0,22.11,10a6.92,6.92,0,0,1,2.61,5.41,7.27,7.27,0,0,1-1,3.32" transform="translate(-1.63 -0.47)"></path></g></g></g></g></g></svg>