<svg xmlns="http://www.w3.org/2000/svg" xmlns:xlink="http://www.w3.org/1999/xlink" id="Layer_1" data-name="Layer 1" viewBox="0 0 23.71 25.54"><defs><style>.cls-1{fill:none;}.cls-2{clip-path:url(#clip-path);}.cls-3{opacity:0.75;}.cls-4{clip-path:url(#clip-path-3);}.cls-5{fill:#b7ce63;}</style><clipPath id="clip-path" transform="translate(-0.71 -0.67)"><rect class="cls-1" x="0.71" y="0.67" width="23.71" height="25.54"></rect></clipPath><clipPath id="clip-path-3" transform="translate(-0.71 -0.67)"><rect class="cls-1" x="-8.29" y="-6.33" width="41.71" height="33.54"></rect></clipPath></defs><title>loan_types_icon</title><g class="cls-2"><g class="cls-2"><g class="cls-3"><g class="cls-4"><g class="cls-2"><path class="cls-5" d="M17.15,16.21l1.14,3.61h.9l1.11-3.56h0l0-.14h0v-15a.45.45,0,0,0-.45-.45H17.59a.45.45,0,0,0-.46.45V16.17h.16ZM18,1.58h1.37V2H18ZM18,3h1.37v13.1l-.67,2.15L18,16Zm4.11,1.36v.92a1.36,1.36,0,0,1,1.36,1.36V23.92a1.36,1.36,0,0,1-1.36,1.37H3a1.36,1.36,0,0,1-1.36-1.37V6.59A1.36,1.36,0,0,1,3,5.23H15.31V4.31H3A2.29,2.29,0,0,0,.71,6.59V23.92A2.29,2.29,0,0,0,3,26.2H22.15a2.29,2.29,0,0,0,2.28-2.28V6.59a2.29,2.29,0,0,0-2.28-2.28M4.36,10.24H11.2a.46.46,0,1,0,0-.91H4.36a.46.46,0,0,0,0,.91m0,3.65h10a.46.46,0,1,0,0-.91h-10a.46.46,0,0,0,0,.91m10.49,2.74H4.36a.45.45,0,0,0-.45.45.46.46,0,0,0,.45.46H14.85a.47.47,0,0,0,.46-.46.46.46,0,0,0-.46-.45m0,3.64H4.36a.46.46,0,0,0,0,.92H14.85a.46.46,0,0,0,0-.92" transform="translate(-0.71 -0.67)"></path></g></g></g></g></g></svg>