<svg xmlns="http://www.w3.org/2000/svg" xmlns:xlink="http://www.w3.org/1999/xlink" id="Layer_1" data-name="Layer 1" viewBox="0 0 24.27 20.85"><defs><style>.cls-1{fill:none;}.cls-2{clip-path:url(#clip-path);}.cls-3{clip-path:url(#clip-path-2);}.cls-4{opacity:0.75;}.cls-5{clip-path:url(#clip-path-3);}.cls-6{clip-path:url(#clip-path-4);}.cls-7{fill:#b7ce63;}</style><clipPath id="clip-path" transform="translate(-2.24 -0.5)"><rect class="cls-1" x="1.91" y="0.5" width="24.92" height="20.85"></rect></clipPath><clipPath id="clip-path-2" transform="translate(-2.24 -0.5)"><rect class="cls-1" x="1.91" y="0.5" width="24.92" height="20.85"></rect></clipPath><clipPath id="clip-path-3" transform="translate(-2.24 -0.5)"><rect class="cls-1" x="-7.09" y="-6.5" width="42.92" height="28.85"></rect></clipPath><clipPath id="clip-path-4" transform="translate(-2.24 -0.5)"><rect class="cls-1" x="1.91" y="0.5" width="24.92" height="20.85"></rect></clipPath></defs><title>nonprofit_checking_icon</title><g class="cls-2"><g class="cls-3"><g class="cls-4"><g class="cls-5"><g class="cls-6"><path class="cls-7" d="M14.37,21.35l-.86-.66c-5.11-3.93-8.2-6.3-10-9.39a8,8,0,0,1-1-6.48A6.2,6.2,0,0,1,5.94,1.09,6.52,6.52,0,0,1,8.68.5a6.9,6.9,0,0,1,5.69,2.94A6.88,6.88,0,0,1,20.06.51a6.51,6.51,0,0,1,2.74.58,6.2,6.2,0,0,1,3.39,3.73,8,8,0,0,1-1,6.48c-1.76,3.09-4.85,5.47-10,9.4ZM8.68,1.41a5.68,5.68,0,0,0-2.36.5A5.37,5.37,0,0,0,3.41,5.1a7.18,7.18,0,0,0,.93,5.75C6,13.79,9,16.12,14.07,20l.3.23.29-.22c5-3.87,8.07-6.2,9.73-9.14a7.1,7.1,0,0,0,.93-5.75,5.32,5.32,0,0,0-2.9-3.19,5.68,5.68,0,0,0-2.36-.5,5.82,5.82,0,0,0-5.28,3.15l-.41.88L14,4.56A5.82,5.82,0,0,0,8.68,1.41" transform="translate(-2.24 -0.5)"></path></g></g></g></g></g></svg>