<svg xmlns="http://www.w3.org/2000/svg" xmlns:xlink="http://www.w3.org/1999/xlink" id="Layer_1" data-name="Layer 1" viewBox="0 0 26.24 25.51"><defs><style>.cls-1{fill:none;}.cls-2{clip-path:url(#clip-path);}.cls-3{clip-path:url(#clip-path-2);}.cls-4{opacity:0.75;}.cls-5{clip-path:url(#clip-path-3);}.cls-6{fill:#b7ce63;}</style><clipPath id="clip-path" transform="translate(-1.25 -0.65)"><rect class="cls-1" x="1.25" y="0.65" width="26.24" height="25.51"></rect></clipPath><clipPath id="clip-path-2" transform="translate(-1.25 -0.65)"><rect class="cls-1" x="1.25" y="0.65" width="26.24" height="25.51"></rect></clipPath><clipPath id="clip-path-3" transform="translate(-1.25 -0.65)"><rect class="cls-1" x="-7.75" y="-6.35" width="44.24" height="33.51"></rect></clipPath></defs><title>reg_bus_checking_icon</title><g class="cls-2"><g class="cls-3"><g class="cls-4"><g class="cls-5"><g class="cls-3"><path class="cls-6" d="M24.07,3.79A1.94,1.94,0,0,0,23.92,2,4.51,4.51,0,0,0,21.8.67l-3.66,0,.1,15.91v.06l1.86,5,1.8-5L21.81,1.52a3.86,3.86,0,0,1,1.51.89,1.22,1.22,0,0,1,.06,1.14L23,4.6a5.23,5.23,0,0,0-.36,3.52A15.92,15.92,0,0,1,23,10.25h.73A16.17,16.17,0,0,0,23.38,8a4.53,4.53,0,0,1,.33-3.13c.1-.3.23-.65.36-1.06m-3-2.39.1,15.12,0,.06H19l0-.06L18.88,1.38Zm-1,18-.8-2.05h1.58Z" transform="translate(-1.25 -0.65)"></path><path class="cls-6" d="M25.23,9.43v.91a1.35,1.35,0,0,1,1.36,1.35V23.9a1.36,1.36,0,0,1-1.36,1.36H3.51A1.36,1.36,0,0,1,2.15,23.9V11.69a1.35,1.35,0,0,1,1.36-1.35H16.62V9.43H3.51a2.26,2.26,0,0,0-2.26,2.26V23.9a2.26,2.26,0,0,0,2.26,2.26H25.23a2.26,2.26,0,0,0,2.26-2.26V11.69a2.26,2.26,0,0,0-2.26-2.26M4.86,15.31h6.79a.45.45,0,0,0,.45-.45.46.46,0,0,0-.45-.46H4.86a.46.46,0,0,0-.45.46.45.45,0,0,0,.45.45m0,3.62h10a.46.46,0,1,0,0-.91H4.86a.46.46,0,0,0,0,.91m11.53,3.61a.47.47,0,0,0,.46.46h6.33a.46.46,0,0,0,.45-.46.45.45,0,0,0-.45-.45H16.85a.46.46,0,0,0-.46.45" transform="translate(-1.25 -0.65)"></path></g></g></g></g></g></svg>