<svg xmlns="http://www.w3.org/2000/svg" xmlns:xlink="http://www.w3.org/1999/xlink" id="Layer_1" data-name="Layer 1" viewBox="0 0 23.81 22.49"><defs><style>.cls-1{fill:none;}.cls-2{clip-path:url(#clip-path);}.cls-3{opacity:0.75;}.cls-4{clip-path:url(#clip-path-3);}.cls-5{fill:#b7ce63;}</style><clipPath id="clip-path" transform="translate(-0.48 -0.67)"><rect class="cls-1" x="0.48" y="0.67" width="23.81" height="22.49"></rect></clipPath><clipPath id="clip-path-3" transform="translate(-0.48 -0.67)"><rect class="cls-1" x="-8.52" y="-6.33" width="41.81" height="30.49"></rect></clipPath></defs><title>bus_checking_icon</title><g class="cls-2"><g class="cls-2"><g class="cls-3"><g class="cls-4"><g class="cls-2"><path class="cls-5" d="M24.29,5.52A1.33,1.33,0,0,0,22.9,4.2h-21A1.33,1.33,0,0,0,.48,5.52V9.24a.38.38,0,0,0,0,.1.66.66,0,0,0,0,.14C.48,12,5.6,14,12.39,14s11.9-1.94,11.9-4.5v-4Zm-.88,3.89v.07c0,1.71-4.53,3.61-11,3.61s-11-1.9-11-3.61c0,0,0-.05,0-.1V5.52a.46.46,0,0,1,.52-.44h21a.46.46,0,0,1,.51.44V9.41Zm.44,3.17a.44.44,0,0,0-.44.44v9.26h-22V13a.44.44,0,0,0-.88,0V23.16H24.29V13a.44.44,0,0,0-.44-.44m-9.26,3.53a.44.44,0,0,0,.44-.44.43.43,0,0,0-.44-.44H10.18a.44.44,0,0,0-.44.44.44.44,0,0,0,.44.44Zm-7-12.35A.44.44,0,0,0,8,3.32V2c0-.23.18-.46.36-.46H16a.46.46,0,0,1,.37.46v1.3a.44.44,0,0,0,.44.44.44.44,0,0,0,.44-.44V2A1.33,1.33,0,0,0,16,.67H8.34A1.33,1.33,0,0,0,7.1,2v1.3a.44.44,0,0,0,.44.44" transform="translate(-0.48 -0.67)"></path></g></g></g></g></g></svg>